<svg width="160" height="160" xmlns="http://www.w3.org/2000/svg" version="1.1">
 <!-- Generator: Adobe Illustrator 29.8.7, SVG Export Plug-In . SVG Version: 2.1.1 Build 1)  -->

 <g>
  <title>Layer 1</title>
  <g id="Vrstva_1">
   <path class="st0" d="m139.33,82.44c1.07,-0.59 2.29,-1.23 2.84,-2.39c0.34,-0.73 0.23,-1.5 -0.37,-2.01c-0.86,-0.71 -2.03,-0.1 -2.46,0.67l0,0c-0.43,-0.78 -1.58,-1.39 -2.44,-0.68c-0.6,0.51 -0.71,1.28 -0.37,2.01c0.55,1.16 1.74,1.8 2.8,2.4l0,0z" fill="#ba0000" stroke="#010101" stroke-miterlimit="10" stroke-width="0.25px" id="svg_1"/>
   <path class="st2" d="m80.87,10.67c38.85,0 70.46,30.43 70.46,67.83s-31.61,67.83 -70.46,67.83s-70.46,-30.43 -70.46,-67.83s31.61,-67.83 70.46,-67.83m0,-1c-39.47,0 -71.46,30.81 -71.46,68.83s31.99,68.83 71.46,68.83s71.46,-30.82 71.46,-68.83s-31.99,-68.83 -71.46,-68.83l0,0z" fill="#ba0000" id="svg_2"/>
   <g id="svg_3">
    <path class="st2" d="m109.59,77.63c0,0.14 -0.11,0.45 -0.16,0.6c-0.24,0.68 -0.78,1.37 -1.44,1.67c-0.02,0.02 0.17,0.28 0.2,0.34c0.11,0.23 0.07,0.12 0.19,0.28c0.07,0.1 0.09,0.26 0.17,0.35c0.07,0.08 0.17,0.08 0.24,0.19s0.09,0.28 0.1,0.41c0.4,-0.31 0.83,-0.51 1.35,-0.49c0.55,0.02 1.02,0.46 1.54,0.61c0.18,-0.13 1.42,-0.79 1.44,-0.91c0,-0.04 -0.14,-0.42 -0.15,-0.54c-0.01,-0.34 0.1,-1 0.24,-1.32c0.13,-0.3 0.24,-0.32 0.42,-0.52c0.4,-0.45 0.82,-0.87 1.27,-1.27c0.19,0 0.37,0.58 0.53,0.7c0.13,-0.22 1.09,-0.4 1.21,-0.28c0.02,0.02 0.14,0.35 0.15,0.4c0.07,0.36 -0.07,0.75 -0.26,1.05c0.3,-0.07 1.24,0.28 1.3,0.55s-0.31,0.88 -0.59,0.97c0.15,0.16 0.46,0.6 0.17,0.73c0.09,-0.65 -0.73,-1.03 -1.26,-1.14c-0.03,0 -0.48,0 -0.36,-0.11c0.38,-0.06 0.76,0.1 1.09,0.28c0.18,0.1 0.14,0.23 0.37,0.08c0.18,-0.12 0.43,-0.49 0.46,-0.7c0.03,-0.16 -0.47,-0.39 -0.62,-0.44c-0.74,-0.24 -2.47,0.06 -3.03,0.64c-0.14,0.15 -0.21,0.32 -0.34,0.48c0,0.1 0.02,0.05 0.07,0.02c0.39,-0.16 1.21,-0.44 1.61,-0.48c0.21,-0.02 0.59,0.08 0.22,0.19c-0.33,0.1 -0.81,0.11 -1.13,0.27c-0.07,0.03 -0.1,0.11 -0.18,0.14c-0.12,0.06 -0.28,0.08 -0.38,0.15c-0.12,0.08 0.12,0.06 0.09,0.17c-0.06,-0.05 -0.42,0 -0.43,0.05c-0.01,0.12 0.66,0.4 0.78,0.49c0.06,0.05 0.08,0.13 0.13,0.19s0.43,0.19 0.34,0.31s-1.07,-0.76 -1.34,-0.75c-0.47,0.01 -1.28,0.68 -1.75,0.84c0,0.07 -0.09,0.17 -0.1,0.22c-0.05,0.56 -0.06,1.09 -0.44,1.6c-0.08,0.11 -0.18,0.17 -0.25,0.28c0.4,0.05 0.78,0.39 1,0.72c0.33,0.49 0.44,0.94 0.42,1.5c-0.01,0.26 -0.35,0.24 -0.55,0.37c-0.17,0.11 -0.29,0.37 -0.4,0.43c-0.05,0.02 -0.1,0.03 -0.1,-0.05c0.01,-0.14 0.33,-0.49 0.46,-0.56c0.11,-0.07 0.3,-0.08 0.38,-0.15c0.15,-0.13 0.07,-0.39 0.05,-0.56c-0.07,-0.02 0.02,0.32 -0.1,0.2c-0.04,-0.03 -0.11,-0.44 -0.16,-0.51c0,-0.02 -0.39,-0.1 -0.22,-0.23c0.09,-0.07 0.2,0.04 0.14,-0.16c-0.01,-0.04 -0.45,-0.62 -0.49,-0.66c-0.07,-0.06 -0.26,-0.14 -0.36,-0.18c-0.11,-0.04 -0.21,0.03 -0.25,-0.09c-0.64,0.53 -1.5,0.54 -2.29,0.61c0,0.07 0.04,0.09 0.09,0.13c0.26,0.25 0.94,0.44 1.29,0.33c0.16,-0.05 0.1,-0.1 0.17,-0.18c0.21,-0.21 0.54,0.11 0.35,0.19c-0.08,0.03 -0.21,0.01 -0.3,0.03c-0.36,0.09 -0.58,0.16 -0.96,0.03c0.44,0.53 0.95,1.12 0.89,1.86c-0.09,0.04 -0.12,-0.09 -0.14,-0.15c-0.09,-0.24 -0.11,-0.46 -0.23,-0.71c-0.18,-0.35 -0.89,-1.21 -1.27,-1.28c-0.21,-0.04 -0.24,0.19 -0.23,0.2c0,0 0.07,0 0.11,0.01c0.37,0.19 1.1,0.94 1.34,1.29s0.34,1.1 0.9,1.02c0.07,0 0.3,-0.17 0.33,-0.04c0.04,0.12 -0.46,0.27 -0.57,0.22c0.12,0.71 -0.37,1.64 -1.05,1.89c-0.47,0.17 -0.61,-0.1 -0.97,-0.27c-0.24,-0.11 -0.61,-0.2 -0.81,-0.35c-0.29,-0.21 -0.58,-0.67 -0.56,-1.04c0.04,0 0.09,-0.03 0.12,0.01c0.04,0.05 0.1,0.31 0.16,0.41c0.37,0.68 0.86,0.57 1.39,0.93c0.31,0.21 0.17,0.36 0.65,0.19c0.6,-0.2 1.02,-1.05 0.99,-1.66c-0.01,-0.25 -0.1,-0.17 -0.21,-0.29c-0.18,-0.19 -0.22,-0.48 -0.34,-0.71c-0.28,-0.57 -0.86,-1.06 -1.34,-1.46l-0.29,-0.13c-0.35,0.55 0.01,0.45 0.42,0.6c0,0.18 -0.1,0.23 -0.27,0.21c-0.35,-0.05 -0.53,-0.66 -0.5,-0.98c0.12,-0.05 0.08,0.15 0.15,0.14c0,0 0.08,-0.09 0.09,-0.11c0,-0.05 -0.07,-0.09 -0.09,-0.15c-0.03,-0.15 0.12,-0.26 0.25,-0.29c0.06,-0.02 0.2,0.05 0.2,-0.04l-0.57,-0.15c-0.12,-0.23 -0.29,-0.08 -0.44,-0.14c-0.01,0 -0.19,-0.14 -0.25,-0.18s-0.07,-0.12 -0.12,-0.13c-0.1,-0.02 -0.61,0.06 -0.73,0.1c-0.13,0.04 -0.22,0.14 -0.34,0.19c-0.14,0.06 -0.11,-0.05 -0.04,-0.14c0.15,-0.18 0.31,-0.17 0.49,-0.27c-0.18,-0.09 -0.28,-0.23 -0.41,-0.37l-0.38,-0.77c-0.03,0.28 -0.08,0.56 -0.15,0.84c-0.06,0.21 -0.25,0.57 -0.27,0.75c-0.02,0.12 0.21,-0.08 0.16,0.06c-0.03,0.08 -0.18,0.16 -0.22,0.22c-0.19,0.3 0,0.56 0.03,0.85c0.03,0.34 -0.02,0.25 0.11,0.6c0.1,0.28 0.19,0.62 0.44,0.82c0.01,0 0.05,-0.03 0.06,-0.02c0.02,0.01 0.04,0.08 0.1,0.11c0.24,0.11 0.57,0.08 0.82,0.03c0.09,-0.67 0.47,-1.16 0.81,-1.71c-0.1,-0.06 -0.46,0.29 -0.49,0.12c0,-0.18 0.09,-0.19 0.16,-0.28c0.02,-0.03 0,-0.1 0.04,-0.13c0.04,-0.03 0.13,-0.02 0.15,-0.03c0,0 0.02,-0.19 0.02,-0.21c-0.02,-0.06 -0.18,-0.1 -0.11,-0.21c0.03,-0.05 0.14,-0.02 0.05,-0.12c0.35,-0.11 0.09,0.1 0.1,0.17c0,0.01 0.11,0.16 0.12,0.17c0.02,0.01 0.41,-0.29 0.32,0.14c-0.03,0.12 -0.18,0.13 -0.21,0.17c-0.02,0.03 -0.06,0.26 -0.11,0.37c-0.14,0.3 -0.39,0.56 -0.53,0.89s-0.19,0.64 -0.18,1c-0.12,0 -0.08,-0.21 -0.1,-0.23c-0.02,-0.02 -0.39,0.07 -0.51,0.06c-0.21,-0.02 -0.49,-0.12 -0.65,-0.26c-0.08,-0.07 -0.21,-0.33 -0.28,-0.31l-3.17,2.44c-0.02,0.16 0.14,0.22 0.21,0.32c0.66,0.97 0.22,1.96 -0.08,2.97c0.42,-0.31 0.95,-0.58 1.46,-0.7c0.07,-0.02 0.27,-0.01 0.28,-0.03c0.01,-0.01 0.05,-0.2 0.11,-0.29c0.35,-0.6 0.91,-1.32 1.68,-1.29c0.28,0.01 0.59,0.16 0.65,0.46c-0.15,0.05 -0.15,-0.1 -0.23,-0.17c-0.47,-0.4 -1.23,0.06 -1.55,0.45c-0.04,0.04 -0.09,0.07 -0.07,0.14c0.49,-0.4 1.23,-0.67 1.82,-0.31c0.12,0.07 0.44,0.39 0.19,0.43c0.04,-0.29 -0.54,-0.48 -0.77,-0.49c-0.69,-0.04 -1.32,0.55 -1.7,1.07c0.17,-0.02 0.26,0.16 0.39,0.24c0.73,0.46 1.69,0.66 2.25,-0.15c0.02,-0.03 0.25,-0.55 0.25,-0.26c0,0.09 -0.22,0.44 -0.29,0.52c-0.48,0.53 -1.17,0.49 -1.79,0.26c-0.34,-0.13 -0.53,-0.34 -0.83,-0.53c-0.55,0.09 -1.05,0.25 -1.52,0.56c-0.06,0.04 -0.26,0.18 -0.3,0.21c-0.05,0.04 -0.31,0.26 -0.24,0.33c1.26,-0.28 2.48,-0.38 3.25,0.82c0.07,0.11 0.11,0.26 0.19,0.38c0.06,0.09 0.33,0.36 0.34,0.41c0.01,0.07 -0.06,0.06 -0.06,0.07c0,0.02 0.03,0.07 0.02,0.11c-0.05,0.12 -0.17,0.25 -0.23,0.39c-0.09,0.21 -0.14,0.46 -0.23,0.67c-0.27,0.6 -0.94,1.32 -1.49,1.68c-0.14,0.09 -0.56,0.4 -0.63,0.14c0.57,-0.22 1.04,-0.67 1.45,-1.11c-0.17,-0.03 -0.4,0.11 -0.56,0.1c-0.08,0 -0.12,-0.09 -0.16,-0.09c-0.1,0 -0.24,0.07 -0.41,0.04c-0.07,-0.01 -0.09,0 -0.08,-0.09c0.4,0 0.81,-0.08 1.17,-0.26c0.07,-0.04 0.1,-0.11 0.2,-0.15c0.14,-0.06 0.14,0.06 0.15,0.05c0.13,-0.06 0.39,-0.92 0.46,-1.1c0.03,-0.07 0.13,-0.16 0.07,-0.2c-0.27,0.23 -0.84,0.38 -1.19,0.37c-0.05,0 -0.12,-0.01 -0.06,-0.07c0.03,-0.03 0.65,-0.11 0.78,-0.15c0.25,-0.08 0.44,-0.24 0.67,-0.35l-0.22,-0.3c-0.05,0.11 -0.57,0.28 -0.58,0.14c0,-0.07 0.47,-0.1 0.53,-0.2c-0.3,-0.59 -0.64,-1.06 -1.3,-1.25c-1.58,-0.45 -3.51,0.58 -4.55,1.74c-0.07,0.08 -0.38,0.48 -0.39,0.54c-0.02,0.18 0.13,-0.06 0.14,-0.07c0.55,-0.48 1.21,-0.88 1.89,-1.15c0.12,-0.05 0.73,-0.29 0.73,-0.06c0,0.29 -0.25,0.05 -0.31,0.05c-0.08,0 -0.89,0.35 -0.94,0.4c-0.09,0.09 -0.11,0.41 -0.33,0.08c-0.21,0.22 -1.06,0.71 -1.11,0.98c-0.02,0.12 0.05,0.3 -0.13,0.33c-0.16,0.02 -0.05,-0.19 -0.08,-0.27c0,-0.01 -0.12,-0.17 -0.13,-0.17c-0.03,-0.02 -0.09,0.05 -0.13,0.05c-0.02,0 -0.03,-0.07 -0.05,-0.08c-0.04,0 -0.16,0.08 -0.17,0.1c-0.01,0.03 0.17,0.14 -0.01,0.22c-0.04,0.02 -0.08,-0.06 -0.11,0.06l-2.32,-1.81l0.09,-0.06l2.22,1.75c0.16,-0.16 -0.07,-0.17 -0.13,-0.27c-0.07,-0.11 -0.03,-0.33 0.07,-0.27c0.02,0.02 0.05,0.22 0.06,0.23c0.01,0.01 0.16,0.03 0.15,-0.07c-0.02,-0.23 -0.16,-0.5 -0.21,-0.73c-0.16,-0.68 -0.15,-1.27 -0.5,-1.89c-0.02,-0.03 -0.17,-0.26 -0.19,-0.27c-0.19,-0.15 0.08,0.29 0.08,0.31c0.06,0.13 0.15,0.39 0.17,0.52c0,0.06 0.05,0.15 -0.04,0.14c-0.1,-0.13 -0.1,-0.33 -0.16,-0.49c-0.14,-0.37 -0.49,-0.84 -0.86,-1c-0.74,-0.33 -1.51,-0.09 -2.26,0.06c-0.04,0.02 -0.05,0.03 -0.04,0.08c0.05,0.21 0.49,0.34 0.57,0.48c0.03,0.05 0,0.07 -0.05,0.06c-0.14,0 -0.8,-0.49 -0.77,-0.62c0.03,-0.16 0.48,-0.12 0.54,-0.27c0.19,-0.42 1.29,-3.03 1.07,-3.3c-0.19,0.09 -0.41,0.21 -0.63,0.25c-1.22,0.21 -1.83,-0.73 -2.68,-1.39c-0.05,-0.04 -0.1,-0.05 -0.09,-0.13c0.04,-0.04 0.38,0.2 0.43,0.24c0.85,0.69 1.46,1.66 2.77,1.02c0.09,-0.04 0.3,-0.24 0.32,-0.24c0.06,0 0.18,0.59 0.22,0.68c0.32,0.73 1.39,0.94 2.04,1.2c0.1,0.04 0.47,0.18 0.48,0.29c0,0.02 -0.08,0.09 -0.11,0.07c0,0 -0.02,-0.08 -0.12,-0.14c-0.35,-0.22 -1.09,-0.34 -1.52,-0.56c-0.36,-0.18 -0.59,-0.42 -0.87,-0.71c-0.19,0.94 -0.66,1.79 -1.05,2.65c0,0.08 0,0.05 0.06,0.05c0.24,0.02 0.59,-0.11 0.89,-0.1c0.8,0.01 1.65,0.43 2,1.18l0.13,-0.68c0.42,-1.58 1.58,-2.51 3.16,-2.8c0.15,-0.03 0.48,-0.02 0.6,-0.06c0.21,-0.08 1.04,-1.03 1.22,-1.25c0.3,-0.38 0.84,-1.35 1,-1.81c0.12,-0.34 -0.07,-1.06 -0.25,-1.37c-0.22,-0.37 -0.64,-0.56 -0.9,-0.9c-0.61,-0.79 -0.46,-1.61 -0.82,-2.37c-0.04,-0.08 -0.35,-0.43 -0.04,-0.33c0.82,0.53 1.48,1.35 1.74,2.31c0.08,0.74 0.36,1.43 0.45,2.15c0,0.04 -0.02,0.11 0.05,0.09c0.33,-0.75 0.78,-1.5 0.95,-2.3c0.15,-0.7 0.01,-1.33 0.06,-2.02c0.02,-0.26 0.26,-1.11 0.1,-1.26c-1.11,-0.51 -2.75,-1.12 -3.3,-2.31c-0.05,-0.1 -0.22,-0.58 -0.16,-0.64c0,-0.01 0.09,-0.02 0.12,0.01c0.07,0.09 0.16,0.44 0.23,0.58c0.57,1.13 2.1,1.68 3.18,2.16l0,-0.16c0.09,-0.04 0.23,0.1 0.29,0.06c0.02,-0.02 0.12,-0.49 0.11,-0.54c-0.02,-0.76 -1.23,-1.85 -1.9,-2.16c-0.14,-0.06 -0.32,-0.09 -0.48,-0.16c-0.23,-0.1 -0.71,-0.39 -0.91,-0.43c-0.16,-0.04 -0.43,0.09 -0.27,-0.28l0.59,0.23l-0.06,-0.72c0,-0.05 0.07,-0.36 0.18,-0.27c0.04,0.34 -0.06,0.74 0.1,1.05c0.11,0.21 0.7,0.37 0.93,0.48c0.03,0.01 0.04,0.06 0.06,0.07c0.35,0.18 0.68,0.35 1,0.59c0,-0.58 0.24,-1.2 0.6,-1.66c0.27,-0.35 0.55,-0.32 0.33,-0.85s-0.92,-0.53 -0.97,-1.1c0.13,0.05 0.14,0.19 0.24,0.3c0.16,0.18 0.45,0.29 0.62,0.46c0.19,0.19 0.25,0.43 0.31,0.68c0.44,-0.26 0.86,-0.63 1.41,-0.62c-0.03,-0.33 -0.33,-0.41 -0.54,-0.63c-0.53,-0.58 -0.7,-1.52 -0.29,-2.21c0.1,-0.17 0.29,-0.41 0.49,-0.43c0.07,0.06 -0.36,0.58 -0.41,0.69c-0.28,0.65 -0.06,1.5 0.49,1.94c-0.13,-0.42 0.03,-0.87 0.24,-1.23c0.07,-0.12 0.52,-0.65 0.51,-0.69c0,-0.07 -0.26,-0.33 -0.33,-0.39c-0.05,-0.04 -0.55,-0.29 -0.48,-0.36c0.31,-0.07 0.59,0.17 0.79,0.37c0.04,0.04 0.16,0.22 0.18,0.22c0.08,0 0.2,-0.15 0.33,-0.07c0.05,-0.73 -0.26,-1.11 -0.86,-1.44c-0.76,-0.43 -1.62,-0.39 -2.15,-1.2c-0.42,-0.65 -0.28,-1.43 -0.74,-2.11c-0.08,-0.12 -0.61,-0.66 -0.56,-0.73c0.08,-0.12 0.25,0.11 0.33,0.15c0.33,0.19 0.58,0.19 0.91,0.31c1.94,0.67 2.49,2.07 3.05,3.89c0.01,0.04 0,0.13 0.07,0.11c0.15,-0.49 0.25,-0.83 0.07,-1.34c-0.45,-1.3 -1.02,-1.63 -0.69,-3.22c0.14,-0.64 0.67,-1.28 0.71,-1.76c0.01,-0.14 -0.07,-0.3 0.03,-0.41l0.3,0.54c0.05,0.03 0.42,0.55 0.46,0.5c0.03,-0.22 0.09,-0.45 0.15,-0.66c0.09,-0.33 0.46,-1.32 0.47,-1.57c0,-0.1 -0.07,-0.24 -0.08,-0.36c-0.05,-0.38 0.08,-0.39 -0.3,-0.64c-0.61,-0.4 -1.28,-0.5 -1.33,-1.46c0,-0.06 0.01,-0.33 0.13,-0.3l0.05,0.61s0.19,0.34 0.22,0.38c0.3,0.42 0.72,0.45 1.1,0.71c0.07,0.04 0.04,0.14 0.14,0.11c0.09,-0.69 0.34,-1.9 -0.44,-2.27c-0.06,-0.03 -0.39,-0.1 -0.34,-0.18c0.32,-0.14 0.71,0.2 0.85,0.47c0.44,0.82 0.02,1.53 0.03,2.35c0,0.04 0,0.4 0.1,0.29c0.01,-0.01 0.07,-0.3 0.1,-0.37c0.79,-2.02 2.62,-3.93 1.73,-6.2c-0.04,-0.1 -0.36,-0.66 -0.34,-0.69c0.08,-0.08 0.16,0.09 0.19,0.13c0.66,1.06 0.64,2.17 0.22,3.3c-0.22,0.59 -0.56,1.12 -0.81,1.7l0.51,-0.53c0.75,-0.96 2.24,-0.7 3.09,-1.33c0.07,-0.06 0.37,-0.38 0.41,-0.38c0.16,0 -0.03,0.4 -0.06,0.46c-0.24,0.54 -0.92,1.29 -1.47,1.51c-0.78,0.32 -1.5,-0.05 -2.23,0.35c-0.63,0.34 -1.22,1.92 -1.44,2.59c-0.08,0.24 -0.15,0.48 -0.2,0.72c0.17,-0.2 0.31,-0.43 0.53,-0.58c0.13,-0.09 0.46,-0.18 0.5,-0.21c0.04,-0.03 0.18,-0.74 0.24,-0.87c0.17,-0.45 0.61,-0.85 1.11,-0.87c0.09,0 0.63,0.04 0.51,0.2c-0.02,0.02 -0.44,-0.08 -0.56,-0.06c-0.81,0.1 -1.01,1 -1.16,1.65c0.55,-0.04 1.04,0.24 1.57,-0.06c0.37,-0.21 0.49,-0.56 0.7,-0.9c0.13,-0.07 0,0.28 -0.01,0.32c-0.22,0.57 -0.69,0.88 -1.3,0.88s-0.94,-0.37 -1.53,0.05c-0.5,0.36 -0.63,0.89 -0.81,1.42c-0.03,0.08 -0.2,0.36 -0.2,0.4c0,0.04 0.18,0.29 0.21,0.37c0.41,0.96 0.29,2.25 -0.05,3.21c-0.12,0.35 -0.32,0.67 -0.45,1.02c0.57,-0.62 1.24,-1.27 2.08,-1.48c0.5,-0.13 1.01,-0.08 1.43,-0.42c0.11,-0.09 0.15,-0.26 0.34,-0.24c-0.07,0.44 -0.67,0.51 -0.88,0.79c-0.34,0.45 -0.29,1.15 -0.82,1.59c-0.64,0.52 -2.01,0.22 -2.5,1.14c-0.05,0.09 -0.13,0.59 -0.1,0.67c0.01,0.02 0.35,0.22 0.43,0.31c0.24,0.25 0.47,0.72 0.38,1.07c0.42,-0.21 0.9,-0.31 1.36,-0.18c0.08,-0.26 -1.03,-0.36 -0.94,-0.44c0.35,-0.04 0.75,0.05 1,0.3c0.04,0.04 0.05,0.11 0.09,0.15c0.08,0.07 0.36,0.11 0.51,0.25c0.08,0.07 0.16,0.22 0,0.17c-0.11,-0.04 -0.23,-0.16 -0.37,-0.21c-0.79,-0.31 -1.52,-0.11 -2.04,0.54c-0.07,0.08 -0.24,0.33 -0.27,0.43c-0.03,0.1 0.04,0.35 -0.16,0.31l-0.03,-0.12c-0.17,0.2 -0.36,0.53 -0.55,0.69c-0.16,0.14 -0.2,0.07 -0.13,-0.11c0.02,-0.04 0.46,-0.62 0.5,-0.66c0.25,-0.26 0.28,-0.28 0.5,-0.59c0.14,-0.2 0.3,-0.28 0.35,-0.54c0.08,-0.5 -0.24,-0.85 -0.58,-1.15c-0.04,-0.03 -0.06,-0.1 -0.07,-0.11c-0.02,-0.02 -0.11,0.05 -0.17,0.05s-0.1,-0.06 -0.16,-0.06c-0.22,0.01 -0.61,0.53 -0.74,0.72c-0.17,0.27 -0.36,0.67 -0.34,0.99c0.01,0.19 0.22,0.81 0.31,0.98c0.03,0.06 0.28,0.12 0.16,0.33c-0.07,0.13 -0.13,-0.04 -0.15,-0.06c-0.01,0 -0.05,0.02 -0.09,0c-0.09,-0.06 -0.1,-0.18 -0.29,-0.18c-0.43,0 -1.38,0.76 -1.64,1.11s-0.68,1.23 -0.51,1.66c0.03,0.08 0.38,0.43 0.47,0.6c0.16,0.29 0.23,0.63 0.33,0.94c0.15,-0.13 0.03,-0.25 0.03,-0.37c0,-0.36 0.06,-0.55 0.23,-0.86c0.03,-0.06 0.12,-0.1 0.12,-0.12c0.02,-0.13 -0.15,-0.16 -0.04,-0.25c0.1,0 0.29,0.08 0.27,0.19c-0.03,0.14 -0.17,0.08 -0.18,0.09c-0.01,0 -0.14,0.22 -0.15,0.25c-0.11,0.23 -0.17,0.49 -0.13,0.74c0.57,-0.67 1.3,-1.22 2.16,-1.43c0.09,-0.56 -0.05,-1.12 -0.24,-1.64c-0.06,-0.18 -0.21,-0.35 -0.2,-0.56c0.16,-0.05 0.18,0.35 0.28,0.29c0.03,-0.02 0.24,-0.35 0.34,-0.44c0.06,-0.05 0.12,-0.1 0.18,-0.14c0.04,-0.02 0.13,-0.02 0.15,-0.04s-0.02,-0.1 0.02,-0.11c0.37,-0.11 0.34,0.22 0.62,0.3c0.32,0.1 0.74,0.02 1.05,-0.11c0.09,-0.04 0.59,-0.35 0.62,-0.32c0.08,0.07 -0.41,0.34 -0.46,0.36c-0.59,0.28 -0.76,0.19 -1.34,0.14c-0.09,0 -0.15,0.04 -0.22,0.04c-0.14,0 -0.23,-0.12 -0.39,-0.07c-0.21,0.06 -0.37,0.47 -0.53,0.59c0.22,0.53 0.33,1.09 0.28,1.66c0.33,0.02 0.6,-0.14 0.89,-0.23c0,0.22 0.06,0.47 0.05,0.68l0.09,-0.01zm-10.77,17.27c0.14,-0.16 0.1,-0.01 0.24,0.06c0.06,-0.2 0.28,-0.48 0.43,-0.64c0.67,-0.74 1.53,-1.24 2.42,-1.69c0.38,-0.87 1.06,-2.55 0.3,-3.36c-0.13,-0.14 -0.36,-0.11 -0.3,-0.35c-0.4,0.07 -0.82,0.1 -1.21,0.22c-1.21,0.38 -2.21,1.48 -2.42,2.74c-0.17,1 0.19,2.01 0.4,2.98l0.18,-0.81c0.14,-0.44 0.49,-0.91 0.9,-1.12c0.08,-0.04 0.47,-0.2 0.52,-0.17c0.12,0.06 0.11,0.28 -0.04,0.29c-0.11,0 -0.1,-0.18 -0.38,-0.05c-0.67,0.29 -1.07,1.2 -1.03,1.9l-0.01,0zm5,-7.46l1.49,-1.1c-0.16,-0.41 -0.19,0.02 -0.43,0.04c-0.07,-0.05 0.23,-0.3 0.24,-0.36c0,-0.05 -0.09,-0.16 -0.11,-0.24c-0.02,-0.11 0.03,-0.26 0.02,-0.38c-0.01,-0.15 -0.12,-0.33 -0.11,-0.49l-1.38,2.44c0,0.05 0,0.07 0.06,0.05c0.1,-0.04 0.16,-0.22 0.32,-0.18l-0.1,0.2l0,0.02zm5.54,-3.06c0.27,0.08 0.55,-0.08 0.8,-0.14c0.08,-0.02 0.16,0.03 0.25,0c0.57,-0.16 1.13,-0.9 1.21,-1.48c0.01,-0.09 0.05,-0.65 0.03,-0.69c-0.1,-0.25 -0.83,0.15 -0.98,0.21c-0.21,0.07 -0.12,-0.07 0,-0.15c0.19,-0.12 0.58,-0.27 0.79,-0.26c0.09,0 0.25,0.11 0.3,0c0.01,-0.03 -0.14,-0.15 -0.15,-0.16c-0.31,-0.08 -0.85,0.15 -1.13,0.3c-0.07,0.04 -0.39,0.27 -0.41,0.25c-0.12,-0.1 0.54,-0.41 0.59,-0.43c0.08,-0.03 0.15,-0.07 0.23,-0.1l0.59,-0.13c-0.63,-0.27 -1.03,-0.59 -1.77,-0.41c-0.14,0.04 -0.75,0.38 -0.81,0.49c-0.02,0.05 0,0.13 -0.01,0.19c-0.07,0.24 -0.16,0.47 -0.28,0.69c0.02,0.01 0.56,-0.21 0.39,-0.03c-0.01,0.02 -0.32,0.11 -0.39,0.15c-0.27,0.16 -0.46,0.47 -0.6,0.75c-0.03,0.02 -0.12,-0.03 -0.12,-0.05c0,-0.03 0.25,-0.42 0.3,-0.48c0.21,-0.28 0.37,-0.66 0.46,-1.03c0.05,-0.21 0.13,-0.62 0,-0.79c-0.05,-0.07 -0.22,-0.14 -0.27,-0.24c-0.04,-0.08 -0.03,-0.17 -0.07,-0.26c-0.02,-0.04 -0.32,-0.48 -0.34,-0.5s-0.49,-0.28 -0.52,-0.29c-0.07,-0.02 -0.35,-0.02 -0.36,-0.09c-0.02,-0.18 0.67,0.09 0.76,0.07c0.14,-0.02 0.58,-0.35 0.7,-0.46c0.42,-0.39 0.98,-1.41 0.87,-1.99c-0.05,-0.27 -0.11,-0.02 -0.16,0.01c-0.09,0.06 -0.62,-0.01 -0.77,0c-0.89,0.25 -1.95,0.94 -2.27,1.85c-0.15,0.44 0.15,0.19 0.21,0.23c0,0 0.05,0.2 0.05,0.21c-0.03,0.09 -0.43,0.12 -0.4,0.32c0.2,0.05 0.25,-0.1 0.35,-0.15c0.13,-0.06 0.5,-0.22 0.61,-0.12c0.13,0.12 -0.27,0.1 -0.3,0.12c-0.06,0.03 -0.15,0.2 -0.22,0.25c0.28,0.25 0.56,0.69 0.63,1.06c0.03,0.18 0.11,1.6 0.05,1.66c-0.05,0.06 -0.07,0 -0.08,-0.05c-0.09,-0.44 0,-0.98 -0.07,-1.45c-0.09,-0.56 -0.44,-1.18 -1.04,-1.27c-0.16,0.39 -0.25,0.77 -0.29,1.19c-0.07,0.7 -0.06,1.43 0.35,2.04c0.09,0.14 0.45,0.49 0.59,0.54c0.14,0.05 0.28,-0.02 0.39,0.02c0.01,0 0.17,0.11 0.26,0.16c0.08,0.04 0.07,0.14 0.24,0.09c0.12,-0.04 0.49,-0.19 0.6,-0.25s0.46,-0.36 0.54,-0.47c0.06,-0.08 -0.04,-0.24 0.14,-0.27c0.14,-0.02 0.15,0.07 0.14,0.19c-0.07,0.03 -0.16,0.21 -0.18,0.23c-0.15,0.11 -0.42,0.33 -0.56,0.42c-0.08,0.05 -0.49,0.15 -0.48,0.21c0.11,0.18 0.17,0.12 0.3,0.16c0.06,0.02 0.05,0.09 0.1,0.1c0.11,0.03 0.74,0.05 0.79,0.01c0.01,-0.01 0,-0.09 0.06,-0.11c0.06,-0.03 0.18,0.03 0.27,0.02c0.27,-0.03 0.62,-0.17 0.83,-0.35c0.05,-0.04 0.25,-0.35 0.29,-0.11c0.03,0.18 -0.13,0.12 -0.22,0.18c-0.07,0.05 -0.14,0.16 -0.25,0.18l-0.54,0.21l-0.02,0zm-6.01,-0.81l0.56,0.49c-0.09,-0.46 -0.15,-0.91 -0.32,-1.35s-0.57,-1 -0.91,-1.32c-0.08,-0.07 -0.16,-0.15 -0.25,-0.2c0.2,0.83 0.27,1.76 0.91,2.38l0.01,0zm2.35,-3.89c0,0.74 -0.27,1.46 -0.18,2.21l0.1,-0.96c0.06,-0.43 0.21,-1.09 0.63,-1.3c-0.17,-0.22 -0.33,0.08 -0.55,0.04l0,0.01zm7.79,0.73c0.14,0.08 0.39,-0.51 0.46,-0.6c0.34,-0.44 1.06,-0.67 1.59,-0.77c-0.07,-0.12 0.04,-0.22 0.05,-0.38c0.02,-0.58 -0.3,-1.01 -0.6,-1.47c-0.55,0.54 -1.18,0.98 -1.49,1.71c-0.15,0.35 -0.24,0.81 -0.15,1.18c0,0.03 0.13,0.32 0.14,0.33zm3.2,-2.87l-0.68,0.05s-0.27,0.13 -0.3,0.15c-0.2,0.15 -0.02,0.33 0.01,0.52c0.02,0.11 0.03,0.28 0.03,0.39c0,0.16 -0.05,0.23 -0.09,0.38c0.2,0 0.39,-0.08 0.58,-0.11c0.08,-0.01 0.2,0.04 0.26,0c0.02,-0.01 0.18,-0.31 0.2,-0.36c0.13,-0.33 0.11,-0.69 -0.02,-1.02l0.01,0zm-6.8,-8.06c-0.37,0.41 -0.69,0.85 -0.78,1.41c0.24,-0.25 0.54,-0.43 0.87,-0.55c0.76,-0.27 1.4,-0.05 1.86,-0.88c0.21,-0.38 0.27,-0.85 0.52,-1.21c-0.27,0.08 -0.55,0.08 -0.82,0.15c-0.65,0.17 -1.21,0.6 -1.65,1.08zm-3.42,0.14c0.37,0.2 0.82,0.26 1.21,0.44s0.71,0.4 0.98,0.7c-0.37,-1.53 -1.09,-3.16 -2.62,-3.81l-1.19,-0.37c0.15,0.25 0.36,0.46 0.48,0.74c0.35,0.85 0.14,1.77 1.15,2.3l-0.01,0zm2.54,-5.09c-0.09,0.43 -0.4,0.76 -0.56,1.18c-0.24,0.64 -0.3,1.39 -0.13,2.06c0.19,0.75 0.77,1.4 0.79,2.21l0.63,-1.27c0.33,-0.92 0.46,-2.26 0.06,-3.18c-0.09,-0.2 -0.54,-0.83 -0.7,-0.97c-0.03,-0.03 -0.04,-0.05 -0.1,-0.03l0.01,0zm3,-4.39c0.49,-0.16 1.02,-0.01 1.51,-0.08c0.75,-0.1 1.41,-0.8 1.75,-1.43c-0.02,-0.02 -0.39,0.22 -0.45,0.25c-0.56,0.24 -1.22,0.23 -1.79,0.47c-0.36,0.15 -0.79,0.47 -1.02,0.79z" fill="#ba0000" id="svg_4"/>
    <path class="st2" d="m84.68,107.26c0.02,-0.31 0.16,-0.61 0.23,-0.91c0.28,-1.15 0.47,-2.1 -0.19,-3.2c-0.42,-0.71 -1.21,-0.74 -1.71,-1.28c-0.3,-0.32 -0.54,-0.76 -0.53,-1.22c0,-0.25 0.33,-0.86 0.55,-0.99c0.33,-0.19 0.45,0.07 0.58,0.05c0.04,0 0.12,-0.18 0.18,-0.24c0.23,-0.23 0.57,-0.42 0.9,-0.45s0.19,0.16 0.37,0.25c0.21,0.11 0.52,0 0.64,0.27c0.03,0.06 0.03,0.26 0.06,0.29c0.11,0.08 0.41,-0.08 0.54,-0.08c-0.08,0.2 -0.31,0.14 -0.42,0.17c-0.33,0.11 -0.6,0.64 -0.62,0.97c-0.01,0.21 0.23,0.68 0.21,0.95l-0.07,0.81c0.49,-0.17 0.9,-0.52 1.06,-1.03c0.2,-0.64 -0.09,-1.17 -0.2,-1.79c0.08,-0.02 0.1,0.03 0.12,0.09c0.12,0.31 0.27,0.99 0.26,1.31c-0.02,0.45 -0.32,1.01 -0.7,1.26c-0.18,0.12 -0.53,0.21 -0.67,0.34c-0.26,0.24 -0.07,0.95 0.06,1.25c0.06,0.14 0.13,0.35 0.31,0.31c0.19,-0.04 0.54,-0.69 0.68,-0.88c1.35,-1.75 3.14,-3.15 4.58,-4.79c0.56,-0.63 1.12,-1.34 1.56,-2.09c0.08,-0.14 0.72,-1.33 0.66,-1.38c-0.19,0.13 -0.34,0.29 -0.56,0.38s-0.3,0.06 -0.49,0.17c-0.32,0.21 -0.58,0.5 -0.88,0.73c-0.92,0.69 -2.25,1.42 -3.33,0.62c-0.1,-0.07 -0.39,-0.4 -0.44,-0.42c-0.14,-0.06 -0.38,0.08 -0.27,-0.26c0.07,-0.23 0.24,-0.22 0.29,-0.28c0.04,-0.05 0.03,-0.22 0.04,-0.26c0,-0.02 0.08,0.01 0.06,-0.05c-0.8,0.02 -1.12,-0.63 -1.52,-1.18c-0.12,-0.21 0.32,-0.42 0.48,-0.46c0.13,-0.03 0.56,-0.07 0.66,0.02c0.14,0.12 -0.16,0.05 -0.19,0.05c-0.15,0 -0.9,0.07 -0.84,0.32c0,0.04 0.44,0.65 0.5,0.72c0.15,0.18 0.28,0.27 0.51,0.34c0.6,0.19 0.48,-0.04 0.88,-0.3c0.9,-0.6 2.06,-0.39 3.05,-0.72c0.03,0.1 -0.01,0.07 -0.07,0.1c-0.72,0.4 -1.96,0.11 -2.83,0.64c-0.49,0.3 -0.56,0.69 -0.88,1.12c0.16,0 0.53,-0.15 0.66,-0.07c0.21,0.11 -0.3,0.18 -0.34,0.22c0.27,0.21 0.47,0.48 0.82,0.58c1.34,0.37 2.5,-0.78 3.47,-1.52c-0.13,-0.11 -0.29,-0.12 -0.43,-0.24c-0.35,-0.3 -0.35,-0.77 -0.31,-1.2c-0.04,-0.03 -0.76,-0.02 -0.88,-0.06c-0.22,-0.06 0.1,-0.19 0.21,-0.21c0.24,-0.04 0.46,0.03 0.69,0.03c-0.08,-0.27 0.14,-0.28 0.16,-0.03c0.03,0.43 -0.19,1.14 0.33,1.41s1.09,-0.06 1.45,-0.46c0.19,-0.21 0.26,-0.43 0.41,-0.67c0.06,-0.11 0.37,-0.52 0.38,-0.59c0.01,-0.15 -0.09,-0.47 -0.09,-0.69c0,-0.18 0.17,-0.74 0.16,-0.8c-0.03,-0.14 -0.5,-0.33 -0.65,-0.34c-0.86,-0.03 -1.32,1.22 -2.04,1.5c0,-0.04 0.01,-0.1 -0.03,-0.12c-0.23,-0.08 -0.89,0.02 -1.17,0.01c-0.4,0 -1.01,-0.11 -1.38,-0.27s-0.45,-0.4 -0.87,-0.35c-0.55,0.07 -1.06,0.48 -1.3,0.97c-0.02,0.04 -0.14,0.53 -0.23,0.44c-0.13,-0.13 0.34,-0.85 0.46,-0.98c0.09,-0.09 0.47,-0.4 0.57,-0.43c0.1,-0.04 0.6,-0.11 0.63,-0.13l-0.31,-0.56c-0.16,-0.55 -0.33,-1.09 -0.55,-1.61c-0.13,-0.32 -0.38,-0.59 -0.37,-0.96c0.2,-0.05 0.14,0.16 0.2,0.3c0.09,0.21 0.23,0.41 0.32,0.61c0.21,0.5 0.32,1.04 0.51,1.53c0.4,1.04 1.46,1.27 2.47,1.26l-0.88,-0.4c-0.11,-0.07 -0.07,-0.15 0.06,-0.15c0.17,0 0.91,0.32 1.06,0.42c0.05,0.03 0.07,0.12 0.13,0.14c0.18,0.05 0.66,-0.12 0.71,0.15c0.12,-0.08 0.23,-0.16 0.33,-0.26c0.07,-0.07 0.53,-0.55 0.54,-0.59c0.1,-0.31 -0.33,-0.41 -0.49,-0.61c-0.06,-0.07 -0.13,-0.19 -0.14,-0.28c0.05,-0.07 0.53,0.27 0.65,0.29s0.17,-0.18 0.42,0.02c0.04,0.03 0.06,0.11 0.07,0.11c0.02,0.01 0.21,-0.09 0.22,-0.1c0.02,-0.04 0,-0.19 -0.02,-0.24c-0.1,-0.43 -0.73,-0.71 -0.83,-1.24c-0.15,-0.76 0.43,-1.35 0.03,-2.16c-0.04,-0.09 -0.29,-0.4 -0.23,-0.47c0.02,-0.02 0.13,0.03 0.11,-0.05l-0.47,-0.04c0.14,0.45 0.08,0.72 -0.1,1.13c-0.13,0.3 -0.37,0.64 -0.39,0.98c-0.02,0.38 0.25,1 0.3,1.42c0.02,0.17 -0.08,0.14 -0.07,0.16c0.04,0.08 0.21,0.18 0.18,0.32c-0.19,0.04 -0.24,-0.17 -0.33,-0.27c-0.15,-0.14 -0.48,-0.42 -0.69,-0.43c-0.11,0 -0.28,0.2 -0.36,0c-0.16,-0.41 0.64,-0.07 0.79,0.01c0.1,0.06 0.17,0.16 0.28,0.21c-0.11,-0.76 -0.36,-1.81 -1.04,-2.25c-0.63,-0.42 -1.13,-0.31 -1.81,-0.1c-0.07,0.02 -0.5,0.17 -0.52,0.19c-0.01,0 -0.05,0.1 -0.04,0.11c0.04,0.05 0.46,0.15 0.46,0.32c-0.03,0.04 -0.66,-0.38 -0.81,-0.29c-0.04,-0.14 0.1,-0.06 0.15,-0.09c0.02,-0.02 0,-0.12 0.02,-0.16c0.09,-0.2 0.34,-0.12 0.53,-0.16c0.3,-0.07 0.6,-0.22 0.93,-0.26c0.85,-0.1 1.47,0.39 1.89,1.07c0.23,-0.42 0.67,-0.94 0.66,-1.44c0,-0.17 -0.12,-0.41 -0.02,-0.53c0.05,-0.07 0.5,0.04 0.6,0.07c0.97,0.31 1.54,2 1.49,2.93c-0.02,0.42 -0.19,0.82 -0.29,1.23c0.26,0 0.48,0.13 0.69,0.26l0.03,-0.17c0.08,-0.02 0.04,-0.18 0.12,-0.16c0.03,0 0.47,0.37 0.48,0.41c0.02,0.05 0,0.08 -0.05,0.06c-0.06,-0.02 -0.35,-0.35 -0.4,-0.28c0.04,0.48 -0.19,0.87 -0.13,1.37c0.1,0.88 0.67,1.3 1.41,1.61c0.02,0 0.03,0.08 0.08,0.09c0.13,0.03 0.49,-0.05 0.66,-0.04c0.19,0 0.46,0.05 0.66,0.09c0.16,0.03 0.83,0.19 0.94,0.26c0.12,0.08 0.12,0.33 -0.05,0.35c-0.04,0 -0.08,-0.04 -0.11,-0.04c-0.07,0 -0.52,0.07 -0.53,-0.04c-0.01,-0.14 0.46,-0.02 0.5,-0.06c0,0 0,-0.12 0.03,-0.15c-0.85,-0.21 -1.77,-0.4 -2.62,-0.04c-0.94,0.41 -1.39,1.65 -1.29,2.61c0.16,-0.07 0.97,-0.7 1.05,-0.71c0.02,0 0.09,0.08 0.07,0.11c-0.24,0.16 -0.89,0.48 -1.05,0.69c-0.17,0.24 0.49,0.61 0.71,0.59c0.22,-0.63 0.67,-1.2 1.18,-1.64c0.44,-0.38 1.31,-0.91 1.87,-1.02c0.08,-0.01 0.11,-0.04 0.17,0.04c0,0.09 -0.65,0.27 -0.77,0.33c-1.34,0.59 -2.9,2.23 -2.34,3.81c0.11,0.3 0.33,0.55 0.31,0.91c0,0.07 -0.06,0.13 -0.06,0.2c0,0.14 0.09,0.32 0.03,0.49c0.24,-0.2 0.36,-0.02 0.06,0.05c-0.34,0.09 -0.16,-0.12 -0.16,-0.31c0,-0.22 -0.02,-0.2 0,-0.43c0.03,-0.27 -0.24,-0.63 -0.32,-0.9c-0.15,-0.46 -0.14,-0.95 -0.01,-1.41c-0.68,-0.11 -0.94,-0.46 -0.91,-1.13c0,-0.19 0.08,-0.39 0.1,-0.58c0,-0.05 0,-0.12 -0.05,-0.11c-0.03,0 -0.44,0.29 -0.5,0.34c-0.27,0.21 -0.49,0.48 -0.76,0.7c-0.31,0.24 -0.71,0.41 -1,0.67c-0.26,0.24 -0.52,0.6 -0.78,0.86c-0.98,0.99 -2.02,1.98 -2.95,3.01c-0.44,0.49 -0.88,1.05 -1.25,1.59c0.03,0.05 0.11,0 0.14,-0.02c0.37,-0.18 0.72,-0.41 1.1,-0.59c0.67,-0.32 1.3,-0.5 1.93,-0.94c0.08,-0.06 0.57,-0.44 0.58,-0.48c0.05,-0.13 -0.04,-0.51 -0.02,-0.71c0.05,-0.51 0.66,-1.24 1.2,-1.27c0.2,-0.01 0.56,0.12 0.69,0.26c0.11,0.12 0,0.14 0,0.22c0,0.33 0.49,0.37 0.28,0.98s-0.76,0.97 -1.42,0.93c-0.16,0 -0.33,-0.11 -0.48,-0.12c-0.45,-0.02 -0.86,0.4 -1.25,0.61c-0.54,0.3 -1.12,0.5 -1.68,0.75l-0.23,0.15c0.89,-0.23 1.77,-0.42 2.7,-0.36c0.11,-0.02 0.15,-0.19 0.23,-0.28c0.32,-0.35 0.71,-0.55 1.19,-0.54c0.11,0 0.59,0.06 0.58,0.21c-0.01,0.19 -0.42,0.03 -0.56,0.02c-0.09,0 -0.22,0.01 -0.31,0.02c-0.05,0 -0.15,-0.02 -0.13,0.05c0.32,-0.02 0.92,0.19 1.06,0.48c0.02,0.05 0.03,0.1 -0.02,0.1c-0.02,0 -0.2,-0.18 -0.25,-0.22c-0.19,-0.12 -0.59,-0.27 -0.81,-0.25c-0.16,0 -0.7,0.21 -0.69,0.39c0,0.11 0.38,0.51 0.47,0.6c0.33,0.28 0.64,0.25 1.03,0.12c0.47,-0.16 0.25,-0.14 0.28,-0.42c0,-0.1 0.1,-0.09 0.11,-0.13c0.02,-0.07 -0.02,-0.2 0.02,-0.29l-0.2,0c0.02,-0.07 0.14,-0.07 0.15,-0.08c0.03,-0.04 -0.2,-0.26 -0.04,-0.27c0.06,0.02 0.19,0.29 0.2,0.36c0.02,0.15 0.04,0.22 0.06,0.34c0.09,0.58 -0.79,0.74 -1.23,0.68c-0.57,-0.07 -0.69,-0.73 -1.18,-0.75c-1.04,-0.05 -3.35,0.36 -3.99,1.25c-0.39,0.54 -0.54,1.41 -0.88,1.91c-0.06,0.08 -0.14,0.12 -0.18,0.18c-0.05,0.08 -0.03,0.29 -0.16,0.28l0.01,0zm0.61,-2.76c0.05,0.58 -0.13,1.1 -0.23,1.67l0.58,-1.24c0.16,-0.27 0.29,-0.41 0.55,-0.59c0.04,-0.03 0.14,-0.04 0.14,-0.04c0.01,-0.02 -0.13,-0.23 -0.12,-0.3l-0.42,0.55c-0.19,0.13 -0.33,0.06 -0.5,-0.05zm4.91,-3.07c-0.01,0.17 0.05,0.39 0.04,0.57c0.13,-0.07 0.04,-0.25 0.06,-0.37c0.05,-0.33 0.27,-0.73 0.57,-0.86c0.03,0.03 0.07,0.04 0.07,0.09c0,0.03 -0.29,0.31 -0.34,0.4c-0.15,0.27 -0.2,0.5 -0.06,0.79s0.27,0.34 0.57,0.31c0.44,-0.04 0.87,-0.39 1.04,-0.79c0.23,-0.56 -0.1,-0.51 -0.22,-0.84c-0.04,-0.11 0,-0.24 -0.08,-0.33c-0.11,-0.15 -0.46,-0.19 -0.63,-0.17c-0.48,0.07 -1,0.74 -1.03,1.2l0.01,0zm-5.64,0.73s0.18,0.44 0.25,0.49c0.06,0.04 0.2,0.04 0.27,0.02c0.1,-0.04 0.28,-0.81 0.27,-0.94c-0.02,-0.62 -0.55,-1.27 -0.94,-1.72c-0.12,0.29 -0.33,0.21 -0.55,0.33c-0.19,0.1 -0.3,0.33 -0.3,0.54c-0.02,0.67 0.46,1.37 0.98,1.75c0.02,-0.02 -0.18,-0.61 0.02,-0.47zm-0.61,0.13c-0.32,-0.42 -0.59,-0.96 -0.54,-1.5c0.01,-0.15 0.14,-0.33 0.15,-0.46c0.06,-0.58 -0.31,-0.88 -0.69,-0.34c-0.66,0.95 0.14,1.98 1.08,2.29l0,0.01zm-0.24,-2.03c0.13,-0.14 0.35,-0.07 0.48,-0.12c0.09,-0.04 0.04,-0.23 0.33,-0.16c0.17,0.04 0.52,0.78 0.64,0.68c0.07,-0.32 0.22,-0.65 0.53,-0.81c-0.06,-0.19 -0.78,-0.29 -0.89,-0.54c-0.07,-0.16 0.04,-0.26 -0.28,-0.17c-0.24,0.07 -0.81,0.45 -0.83,0.71c-0.01,0.13 0.03,0.28 0.03,0.41l-0.01,0zm8.37,-2.53c0.52,-0.21 0.86,-0.67 1.31,-0.97c0.1,-0.07 0.28,-0.11 0.35,-0.17c0.05,-0.05 0.24,-0.5 0.32,-0.63c0.2,-0.31 0.48,-0.56 0.81,-0.73c0.09,-0.05 0.37,-0.11 0.38,-0.13c0.06,-0.06 -0.03,-0.07 -0.06,-0.08c-0.44,-0.25 -0.88,-0.45 -1.08,-0.97c-0.08,-0.05 -0.26,0.38 -0.3,0.45c-0.36,0.6 -0.5,1.2 -0.83,1.82l-0.9,1.42l0,-0.01zm-0.02,-9.97c0.19,0.26 0.39,0.55 0.42,0.89c0.06,0.53 -0.27,1.16 -0.18,1.65c0.1,0.53 0.83,0.81 0.9,1.38c0.32,-0.65 0.38,-1.36 0.2,-2.07c-0.13,-0.55 -0.63,-1.6 -1.18,-1.82c-0.06,-0.02 -0.11,-0.05 -0.17,-0.03l0.01,0z" fill="#ba0000" id="svg_5"/>
    <path class="st2" d="m94.64,101.86s0.14,0 0.19,-0.02l-0.06,0.2c0.07,-0.05 0.17,-0.04 0.23,-0.08c0.04,-0.03 0.07,-0.15 0.12,-0.18c0.12,-0.06 0.02,0.14 0,0.16c1.09,0.04 2.39,-0.09 2.95,-1.17c0.2,-0.39 0.12,-0.54 0.15,-0.93c0.02,-0.27 0.09,-0.58 0.09,-0.84c0,-0.65 -0.32,-1.29 -0.3,-1.97c0,-0.19 0.2,-1.25 0.35,-1.31c0.04,-0.02 0.11,-0.03 0.1,0.05c-0.02,0.17 -0.15,0.41 -0.2,0.6c-0.26,1.11 0.23,1.71 0.21,2.66c0,0.09 -0.1,0.45 -0.08,0.46c0,0 0.09,-0.01 0.14,0.03c0.04,0.03 0.05,0.11 0.09,0.15c0.57,0.54 1.21,0.93 2.01,1.02c0.66,0.07 1.23,-0.24 1.89,-0.1c0.04,-0.05 -0.21,-0.46 -0.26,-0.53c-0.07,-0.1 -0.25,-0.28 -0.28,-0.35c-0.02,-0.05 0,-0.08 0.05,-0.06c0.18,0.06 0.71,0.93 0.61,1.13c-0.05,0.1 -0.52,-0.02 -0.64,-0.02c-0.35,0 -0.69,0.15 -1.05,0.16c-0.7,0.02 -1.66,-0.38 -2.19,-0.83l-0.4,-0.43c0.21,1.29 -0.8,2.21 -2,2.39c-0.42,0.06 -0.92,-0.02 -1.29,0.06c-0.1,0.02 -0.38,0.21 -0.44,0.05c-0.02,-0.05 -0.02,-0.26 0.02,-0.28l-0.01,-0.02z" fill="#ba0000" id="svg_6"/>
    <path class="st2" d="m95.68,85.92c-0.06,-0.03 -0.16,0 -0.15,-0.12c0.36,0.03 0.7,0.06 1.06,-0.04c0.06,-0.05 -0.54,-0.25 -0.58,-0.28c-0.33,-0.17 -0.64,-0.31 -0.98,-0.47c-0.04,-0.02 -0.05,-0.09 -0.1,-0.1c-0.35,-0.09 -1.02,0.09 -1.3,0.34c-0.03,0.03 -0.17,0.17 -0.17,0.18c0,0.04 0.16,0.02 0.13,0.13c-0.38,-0.09 -0.41,0.52 -0.7,0.64c-0.04,-0.03 0.19,-0.39 0.22,-0.45c0.32,-0.51 0.65,-0.94 1.32,-0.93c0.01,-0.09 -0.02,-0.06 -0.06,-0.08c-0.13,-0.07 -0.22,-0.13 -0.34,-0.2c-0.07,-0.04 -0.14,-0.07 -0.23,-0.16c-0.7,-0.72 -0.8,-1.7 -0.09,-2.45c0.15,-0.16 0.35,-0.27 0.48,-0.47c0.02,0.29 -0.37,0.44 -0.56,0.69c-0.6,0.81 -0.29,1.85 0.52,2.37c0.43,0.28 0.59,0.22 1.05,0.31c0.4,0.08 0.78,0.35 1.21,0.27c-0.17,-0.2 -0.25,-0.4 -0.34,-0.64c-0.02,-0.04 0,-0.1 0,-0.13c-0.05,-0.14 -0.28,-0.29 -0.15,-0.51c0.29,-0.09 0.18,0.31 0.21,0.46c0.06,0.31 0.22,0.53 0.43,0.75c0.07,0.07 0.5,0.38 0.43,0.46c-0.08,0.1 -0.38,-0.28 -0.45,-0.3c-0.04,-0.01 -0.24,0.05 -0.33,0.04c-0.13,0 -0.25,-0.06 -0.38,-0.05c0.09,0.11 0.26,0.2 0.39,0.25c0.1,0.05 0.41,0.11 0.42,0.12c0.01,0.01 0.03,0.21 0.02,0.24c0,0.05 -0.37,0.13 -0.44,0.14c-0.11,0.01 -0.23,-0.04 -0.31,-0.02c-0.03,0 0,0.08 -0.08,0.09c-0.13,0 -0.11,-0.06 -0.16,-0.1l0.01,0.02z" fill="#ba0000" id="svg_7"/>
    <path class="st2" d="m103.13,97.32c0.09,0.08 -0.09,0.16 -0.14,0.19c0.31,0.29 0.67,0.6 0.48,1.06c-0.04,0.04 -0.03,0.29 -0.12,0.26s-0.05,-0.08 -0.04,-0.14c0.04,-0.19 0.14,-0.32 0.08,-0.54c-0.02,-0.09 -0.41,-0.57 -0.48,-0.61c-0.08,-0.05 -0.35,0 -0.48,-0.02c-1.22,-0.15 -1.74,-1.39 -2.83,-1.59c-0.34,-0.06 -0.69,0.06 -0.92,-0.2l0.12,0.37c0.32,0.7 0.8,1.38 1.67,1.23c-0.01,0.55 -0.25,0.14 -0.29,0.14c-0.06,0 -0.14,0.02 -0.22,0c-0.57,-0.11 -0.97,-0.65 -1.21,-1.15c-0.11,-0.23 -0.3,-0.58 -0.11,-0.81s0.59,0.05 0.17,0.09c0.03,0.02 0.13,0.13 0.14,0.14c0.08,0.03 0.46,0 0.62,0.02c0.97,0.14 1.47,1.06 2.31,1.44c0.06,0.03 0.48,0.18 0.51,0.18c0.11,0 0.73,-0.08 0.76,-0.06l-0.02,0z" fill="#ba0000" id="svg_8"/>
    <path class="st2" d="m98.06,85.65l1.69,1.24c0.65,-0.09 1.46,-0.19 1.95,-0.69c0.07,-0.08 0.37,-0.5 0.39,-0.58c0.04,-0.21 -0.31,0 -0.31,-0.21c0.35,-0.07 0.69,-0.22 0.46,0.27c-0.43,0.93 -1.43,1.36 -2.42,1.3c0.32,0.43 0.52,0.9 0.38,1.44c-0.05,0.19 -0.31,0.63 -0.44,0.79c-0.22,0.26 -0.58,0.45 -0.83,0.67c-0.1,0.04 -0.05,-0.12 -0.02,-0.15c0,0 0.06,0.01 0.09,-0.01c0.22,-0.17 0.85,-0.65 0.91,-0.9c0.03,-0.1 -0.17,-0.2 -0.13,-0.34c0.13,-0.05 0.17,0.27 0.25,0.18c0.02,-0.02 0.11,-0.42 0.11,-0.47c0.08,-1.24 -1.36,-1.73 -2.17,-2.34c-0.29,0.28 -0.31,-0.39 -0.23,-0.53c0.05,-0.09 0.4,-0.29 0.49,-0.16c-0.34,0.03 -0.67,0.48 -0.16,0.5l-0.05,-0.11c0.4,0 0.94,-0.06 1.17,-0.44c0.07,-0.11 0.02,-0.25 0.18,-0.28c0.17,-0.03 0.18,0.19 0.11,0.24c-0.05,0.04 -0.14,0 -0.19,0.04c-0.01,0 -0.06,0.13 -0.11,0.18c-0.34,0.32 -0.64,0.4 -1.11,0.38l-0.01,-0.02z" fill="#ba0000" id="svg_9"/>
    <path class="st2" d="m96.98,85.26s-0.05,-0.15 -0.06,-0.19c-0.07,-0.01 -0.02,0.06 -0.04,0.07c-0.15,0.12 -0.2,-0.27 -0.26,-0.34c-0.03,-0.05 -0.11,0 -0.12,-0.04c-0.02,-0.06 0,-0.16 -0.02,-0.23c-0.07,-0.33 -0.15,-0.58 -0.15,-0.93c0,-0.21 0.11,-0.54 0.1,-0.68c0,-0.1 -0.48,-0.63 -0.58,-0.72c-0.11,-0.09 -0.37,-0.26 -0.5,-0.3c-0.34,-0.11 -0.88,-0.07 -1.07,-0.44c0.02,-0.03 0.3,0.16 0.37,0.19c0.33,0.12 0.71,0.11 1.04,0.32c0.32,0.19 0.52,0.56 0.81,0.78c0.23,-0.6 0.96,-1.19 1.56,-1.41c0.25,-0.09 0.56,-0.12 0.78,-0.24c0.09,-0.05 0.32,-0.29 0.37,-0.27c0.14,0.05 0.15,0.3 0.06,0.23c-0.04,-0.03 -0.02,-0.13 -0.12,-0.09l0.02,0.27l0.15,-0.07c-0.06,0.12 -0.25,0.41 -0.27,0.14c0,-0.04 0.06,-0.22 -0.03,-0.21c-0.01,0 -0.18,0.12 -0.25,0.15c-0.34,0.12 -0.68,0.16 -1.01,0.33c-0.31,0.16 -0.92,0.69 -1.05,0.99c-0.02,0.04 0.08,0.16 -0.03,0.19c-0.03,0.01 -0.12,-0.07 -0.13,0.08c0,0.01 0.12,0 0.09,0.15c-0.02,0.09 -0.14,0.02 -0.15,0.03c-0.05,0.09 0.08,0.12 0.09,0.14c0.08,0.24 -0.11,0.15 -0.14,0.24c0.12,0.02 0.23,0.07 0.15,0.21c-0.04,0.08 -0.19,-0.07 -0.13,0.11c0,0.02 0.34,-0.02 0.12,0.21c-0.05,0.05 -0.14,-0.08 -0.08,0.24l0.03,-0.16c0.14,-0.05 0.16,0.27 0.14,0.3c-0.02,0.02 -0.11,-0.01 -0.11,0.03c0,0.07 0.06,0.37 0.14,0.26c-0.15,-0.26 0.16,-0.13 0.16,0.06c0,0.02 -0.08,0.03 -0.08,0.05c0,0.03 0.1,0.25 0.12,0.28c0.03,0.04 0.09,0 0.12,0.03c0.04,0.05 0.04,0.15 0.08,0.21c0,0.03 -0.1,0.03 -0.11,0.03l-0.01,0z" fill="#ba0000" id="svg_10"/>
    <path class="st2" d="m99.58,84.06c-0.07,0.06 -0.23,0.14 -0.32,0.22c-0.21,0.19 -0.42,0.45 -0.64,0.62c-0.07,0.05 -0.14,0.04 -0.14,0c0,-0.03 0.4,-0.39 0.46,-0.45c0.37,-0.34 0.86,-0.85 1.36,-0.89c-0.11,-0.15 0.01,-0.1 0.08,-0.2c0.2,-0.31 0.19,-0.78 0.03,-1.1c-0.11,-0.23 -0.44,-0.59 -0.63,-0.79c-0.1,-0.1 -0.36,-0.24 -0.32,-0.4c0.62,0.55 1.42,1.18 1.09,2.1c-0.05,0.14 -0.13,0.24 -0.17,0.38c0.64,-0.13 1.38,0.25 1.84,0.68c0.05,0.05 0.41,0.43 0.41,0.46c0,0.06 -0.04,0.06 -0.1,0.03c-0.1,-0.06 -0.26,-0.29 -0.36,-0.39c-0.61,-0.55 -1.6,-1.02 -2.37,-0.5c-0.09,0.06 -0.16,0.19 -0.21,0.23l-0.01,0z" fill="#ba0000" id="svg_11"/>
    <path class="st2" d="m115.13,82.04s-0.19,-0.25 -0.05,-0.22c0.1,0.02 0.22,0.17 0.32,0.23c0.4,0.25 0.82,0.45 1.29,0.31s0.84,-0.58 0.73,-1.07c0.26,0.04 0.18,0.37 0.1,0.54c-0.43,0.99 -1.7,0.87 -2.39,0.21z" fill="#ba0000" id="svg_12"/>
    <path class="st2" d="m104.16,76.49s-0.24,-0.44 -0.27,-0.52c-0.05,-0.15 -0.09,-0.63 -0.11,-0.66c-0.05,-0.07 -0.37,-0.17 -0.46,-0.21c-0.06,-0.03 -0.12,-0.02 -0.1,-0.11c0.19,-0.04 0.35,0 0.51,0.1c0.06,0.03 0.04,0.09 0.09,0.08c0.03,-0.77 0.63,-1.17 1.31,-1.36c0.03,0.1 -0.02,0.07 -0.06,0.11c-0.19,0.14 -0.45,0.2 -0.64,0.33c-0.55,0.37 -0.6,1.17 -0.39,1.75c0.06,0.16 0.18,0.3 0.23,0.41c0.03,0.08 -0.07,0.08 -0.11,0.06l0,0.02z" fill="#ba0000" id="svg_13"/>
    <path class="st2" d="m97.81,83.94s-0.17,0.02 -0.19,0.04c-0.04,0.03 -0.2,0.32 -0.23,0.39c-0.1,0.22 -0.31,0.89 0.16,0.76c0.12,-0.03 0.05,-0.12 0.07,-0.14c0.02,-0.02 0.2,0 0.32,-0.11c0.29,-0.26 -0.1,-0.6 0.36,-0.62c0.01,0.11 0.06,0.21 0,0.31c-0.03,0.06 -0.1,0.07 -0.12,0.1c-0.05,0.08 -0.06,0.19 -0.12,0.26c-0.01,0.02 -0.23,0.2 -0.25,0.21c-0.06,0.03 -0.14,-0.07 -0.16,-0.05c0,0 0,0.09 -0.06,0.12c-0.12,0.05 -0.26,-0.06 -0.38,0.07c-0.2,-0.38 0,-0.84 0.18,-1.19c0.04,-0.07 0.1,-0.11 0.14,-0.17c0.03,-0.05 0,-0.18 0.07,-0.2c0.12,-0.04 0.24,0.14 0.19,0.22l0.02,0z" fill="#ba0000" id="svg_14"/>
    <path class="st2" d="m90.46,91.97s0.08,-0.19 0.15,-0.16c0.24,0.18 0.59,0.25 0.84,0.39c0.11,0.07 0.18,0.22 0.28,0.22s0.06,-0.07 0.03,-0.12c-0.05,-0.1 -0.2,-0.22 -0.28,-0.31c0.02,-0.18 0.24,0.06 0.28,0.1c0.15,0.2 0.31,0.46 -0.08,0.45c0.05,0.07 0.15,0.08 0.13,0.2c-0.04,0.22 -0.25,-0.14 -0.31,-0.19c-0.29,-0.26 -0.68,-0.46 -1.05,-0.59l0.01,0.01z" fill="#ba0000" id="svg_15"/>
    <path class="st2" d="m99.79,95.53s0.43,-0.14 0.46,-0.16c0.08,-0.06 0.07,-0.23 0.15,-0.28c0.14,-0.09 0.45,-0.09 0.65,-0.2s0.15,-0.2 0.26,-0.32c0.21,-0.25 0.29,0.03 0.17,0.14c-0.05,0.05 -0.35,0.28 -0.41,0.31c-0.09,0.05 -0.48,0.12 -0.49,0.14c-0.04,0.05 0.07,0.15 -0.17,0.27s-0.96,0.28 -1.2,0.23c-0.07,-0.01 -0.1,0.02 -0.09,-0.08c0.22,-0.03 0.47,-0.01 0.68,-0.05l-0.01,0z" fill="#ba0000" id="svg_16"/>
    <path class="st2" d="m89.6,91.6c0.06,0.08 -0.08,0.21 -0.02,0.29c0.25,0.33 0.72,0.37 1.04,0.53c0.16,0.08 -0.03,0.13 -0.14,0.12c-0.47,-0.02 -0.83,-0.34 -1.1,-0.67c-0.05,-0.06 -0.15,-0.06 -0.17,-0.15c-0.02,-0.18 0.34,-0.18 0.38,-0.12l0.01,0z" fill="#ba0000" id="svg_17"/>
    <path class="st2" d="m89.3,94.68c-0.08,-0.06 -0.08,-0.16 0.04,-0.19c0.18,-0.04 0.27,0.07 0.4,0.09c0.42,0.04 0.78,-0.16 1.18,-0.25c0.02,0.08 -0.04,0.09 -0.08,0.13c-0.25,0.21 -0.68,0.3 -1,0.3c-0.08,0 -0.49,-0.05 -0.53,-0.08l-0.01,0z" fill="#ba0000" id="svg_18"/>
    <path class="st2" d="m96.87,85.93c0.13,-0.05 0.47,0 0.45,0.18c-0.02,0.18 -0.14,-0.01 -0.16,-0.02c-0.21,-0.16 -0.36,0.21 -0.42,-0.07c-0.25,0.19 -0.42,0.5 -0.53,0.79l-0.13,0.87c-0.07,-0.06 -0.05,-0.24 -0.04,-0.33c0.03,-0.62 0.26,-1.12 0.75,-1.51c0.24,-0.19 0.29,-0.1 0.08,0.09z" fill="#ba0000" id="svg_19"/>
    <path class="st2" d="m105.75,77.79c-0.13,-0.11 -0.05,-0.85 0,-1.04c0.06,-0.25 0.11,-0.28 0.22,-0.47c0.02,-0.04 0,-0.11 0.03,-0.15c0.09,-0.17 0.34,-0.1 0.24,0.17c-0.04,0.1 -0.15,0.05 -0.2,0.09c-0.09,0.06 -0.17,0.41 -0.18,0.53c-0.03,0.24 0.03,0.63 -0.02,0.82c-0.01,0.04 -0.01,0.11 -0.08,0.06l-0.01,-0.01z" fill="#ba0000" id="svg_20"/>
    <path class="st2" d="m89.89,94.13c-0.07,0.03 -0.65,-0.02 -0.71,-0.06c-0.05,-0.03 -0.07,-0.14 -0.13,-0.19c-0.07,-0.07 -0.27,-0.17 -0.29,-0.21c-0.12,-0.19 0.07,-0.42 0.23,-0.32c0.07,0.04 0,0.29 0.19,0.46c0.24,0.22 0.67,0.14 0.75,0.24c0.03,0.04 -0.01,0.07 -0.04,0.08z" fill="#ba0000" id="svg_21"/>
    <path class="st2" d="m102.89,99.89s0.31,-0.63 0.29,-0.79c0,-0.07 -0.08,-0.09 -0.1,-0.13c-0.19,-0.37 -0.29,-0.38 -0.53,-0.66c-0.14,-0.16 -0.07,-0.21 0.1,-0.07c0.17,0.15 0.41,0.43 0.51,0.6c0.14,0.25 0.16,0.25 0.11,0.56c-0.04,0.23 -0.11,0.46 -0.38,0.5l0,-0.01z" fill="#ba0000" id="svg_22"/>
    <path class="st2" d="m107.56,76.87s0.04,0.1 0.04,0.12c0,0.15 -0.17,0.16 -0.26,0.25c-0.16,0.15 -0.62,0.94 -0.68,0.95c-0.14,0.03 0.06,-0.31 0.07,-0.34c0.15,-0.26 0.46,-0.53 0.59,-0.74c0.04,-0.06 0.07,-0.35 0.24,-0.25l0,0.01z" fill="#ba0000" id="svg_23"/>
    <path class="st2" d="m106.04,77.96c-0.07,-0.33 0.06,-0.69 0.28,-0.95c0.04,-0.05 0.29,-0.28 0.34,-0.24c0.07,0.26 -0.07,0.2 -0.21,0.31c-0.19,0.15 -0.34,0.63 -0.28,0.87l-0.12,0l-0.01,0.01z" fill="#ba0000" id="svg_24"/>
    <path class="st2" d="m107.71,82.5c0.05,-0.1 0,-0.25 0.15,-0.3c0.19,-0.07 0.18,0.26 0.11,0.31c-0.04,0.03 -0.13,0.01 -0.18,0.04c-0.08,0.04 -0.19,0.44 -0.2,0.54c-0.03,0.24 0.03,0.47 0,0.66c-0.02,0.17 -0.14,0.13 -0.16,-0.06c-0.07,-0.55 0.06,-0.77 0.29,-1.19l-0.01,0z" fill="#ba0000" id="svg_25"/>
    <path class="st2" d="m108.08,84.13c0.36,-0.03 1.26,-0.29 1.45,-0.6c0.05,-0.08 0,-0.19 0.04,-0.23c0.18,-0.16 0.42,0.1 0.23,0.21c-0.05,0.03 -0.11,-0.02 -0.15,0c0,0 0,0.05 -0.03,0.07c-0.33,0.27 -0.73,0.53 -1.16,0.6c-0.1,0.02 -0.32,0.06 -0.38,-0.05z" fill="#ba0000" id="svg_26"/>
   </g>
   <path class="st0" d="m23.32,82.49c1.07,-0.59 2.29,-1.23 2.84,-2.39c0.34,-0.73 0.23,-1.5 -0.37,-2.01c-0.86,-0.71 -2.03,-0.1 -2.46,0.67l0,0c-0.43,-0.78 -1.58,-1.39 -2.44,-0.68c-0.6,0.51 -0.71,1.28 -0.37,2.01c0.55,1.16 1.74,1.8 2.8,2.4l0,0z" fill="#ba0000" stroke="#010101" stroke-miterlimit="10" stroke-width="0.25px" id="svg_27"/>
   <g id="svg_28">
    <path class="st2" d="m76.65,91.74c-1.93,0.24 -4.37,0.37 -6.53,0.37l-16.62,0l0,-1.57c5.84,-0.72 6.16,-1.22 6.16,-6.79l0,-28.22c0,-5.79 -0.74,-6.23 -6.16,-6.85l0,-1.57l19.04,0c9.46,0 15.6,1.94 19.82,5.98c3.46,3.37 5.88,8.33 5.88,14.86c0,8.22 -3.37,14.68 -8.61,18.67c-1.54,1.17 -3.72,2.2 -5.47,2.97l0,-2.91c5.1,-3.57 7.59,-9.93 7.59,-17.67s-2.68,-13.85 -8.49,-17.19c-3.18,-1.89 -7.02,-2.58 -11.59,-2.58c-2.77,0 -4.62,0.37 -5.35,0.88c-0.74,0.44 -1.02,1.13 -1.02,3.83l0,29.1c0,5.56 2.42,6.76 7.82,6.76c1,0 2.59,-0.11 3.5,-0.22l0,2.15l0.03,0z" fill="#ba0000" id="svg_29"/>
    <path class="st2" d="m105.53,98.46c-0.39,2.08 -2.24,8.88 -2.95,11.15l-31.69,0l0,-1.57c6.25,-0.69 6.74,-1.11 6.74,-6.92l0,-28.13c0,-5.82 -0.67,-6.21 -6.16,-6.81l0,-1.57l17.89,0l0,1.57c-5.4,0.67 -6.07,0.95 -6.07,6.81l0,28.92c0,4.45 0.65,5.17 4.82,5.22c0.48,0 4.52,0.02 5.19,0.02c3.72,0 4.96,-0.3 6.62,-2.33c1.55,-1.78 2.84,-4.22 3.85,-6.81l1.75,0.46l0.01,-0.01z" fill="#ba0000" id="svg_30"/>
   </g>
  </g>
  <g id="texty">
   <g id="svg_31">
    <path class="st1" d="m28.2,105.31c-0.21,-0.37 -0.29,-0.4 -0.85,-0.38c-0.56,0.02 -2.54,0.11 -3.4,0.16l-0.03,-0.09c0.81,-0.64 2.13,-1.75 2.52,-2.08c-1,0.02 -2.32,0.05 -3.26,0.07l-0.04,-0.1c0.91,-0.67 1.83,-1.36 2.74,-2.05c0.42,-0.32 0.47,-0.39 0.39,-0.79l0.07,-0.03l0.49,1.33l-0.07,0.03c-0.21,-0.37 -0.29,-0.36 -0.57,-0.15c-0.69,0.51 -1.42,1.05 -2.12,1.59c0.99,-0.02 2.35,-0.07 3.2,-0.09l0.03,0.09c-0.83,0.67 -1.66,1.38 -2.47,2.06c0.92,-0.04 2.07,-0.12 2.57,-0.16c0.38,-0.03 0.47,-0.09 0.35,-0.62l0.07,-0.03l0.44,1.21l-0.07,0.03l0.01,0z" fill="#ba0000" id="svg_32"/>
    <path class="st1" d="m28.03,111.1c-0.19,0.07 -0.67,0.22 -0.85,0.27l-1.36,-2.4l0.07,-0.04c0.32,0.42 0.38,0.43 0.81,0.19l2.17,-1.23c0.45,-0.26 0.48,-0.29 0.32,-0.73l0.07,-0.04l0.85,1.5c0.26,0.46 0.36,0.62 0.42,0.71c-0.19,0.11 -0.54,0.34 -0.7,0.45l-0.05,-0.07c0.11,-0.11 0.26,-0.29 0.32,-0.41c0.08,-0.18 0.06,-0.26 -0.12,-0.57l-0.3,-0.54c-0.08,-0.13 -0.1,-0.14 -0.24,-0.06l-1.22,0.69l0.35,0.62c0.21,0.37 0.31,0.36 0.69,0.23l0.04,0.07l-0.99,0.56l-0.04,-0.07c0.31,-0.29 0.35,-0.36 0.16,-0.7l-0.36,-0.63l-1.21,0.69c-0.35,0.2 -0.3,0.34 -0.13,0.64l0.27,0.48c0.15,0.26 0.24,0.31 0.5,0.33c0.16,0.02 0.33,0 0.52,-0.01l0.02,0.08l-0.01,-0.01z" fill="#ba0000" id="svg_33"/>
    <path class="st1" d="m31.59,114.01c0.28,0.54 0.33,1.11 -0.15,1.46c-0.32,0.24 -0.71,0.26 -1.06,0.11c-0.31,-0.13 -0.58,-0.39 -0.8,-0.68l-0.82,-1.1l0.06,-0.05c0.35,0.33 0.41,0.34 0.8,0.05l2.04,-1.52c0.37,-0.28 0.37,-0.35 0.16,-0.76l0.06,-0.05l0.9,1.21c0.27,0.36 0.34,0.61 0.35,0.84c0,0.24 -0.11,0.48 -0.32,0.64c-0.44,0.33 -0.92,0.09 -1.22,-0.15zm-1.69,0.18c-0.36,0.26 -0.35,0.45 -0.11,0.76c0.3,0.4 0.75,0.5 1.27,0.12c0.5,-0.38 0.58,-0.84 0.15,-1.43l-0.2,-0.27l-1.1,0.82l-0.01,0zm1.39,-0.64c0.4,0.53 0.74,0.53 1.13,0.24c0.35,-0.26 0.53,-0.66 0.19,-1.12c-0.07,-0.09 -0.15,-0.18 -0.2,-0.21c-0.08,-0.06 -0.15,-0.03 -0.33,0.1l-0.99,0.74l0.19,0.26l0.01,-0.01z" fill="#ba0000" id="svg_34"/>
    <path class="st1" d="m36.55,116.97c0.71,0.73 0.74,1.94 -0.1,2.75c-0.91,0.87 -2.11,0.82 -2.86,0.05c-0.75,-0.77 -0.71,-1.99 0.1,-2.76c0.77,-0.75 2.02,-0.92 2.86,-0.04zm-0.18,0.01c-0.47,-0.49 -1.32,-0.48 -2.17,0.33c-0.84,0.81 -1.04,1.82 -0.43,2.45c0.48,0.5 1.3,0.47 2.14,-0.33c0.93,-0.89 1.04,-1.84 0.46,-2.45z" fill="#ba0000" id="svg_35"/>
    <path class="st1" d="m42.09,122.16c-0.35,-0.21 -0.46,-0.18 -0.97,0.09c-0.45,0.24 -1.95,1.07 -3.03,1.68l-0.07,-0.06c0.4,-1.09 0.82,-2.3 1.18,-3.31c0.17,-0.49 0.15,-0.58 -0.11,-0.88l0.05,-0.06l1.13,0.93l-0.05,0.06c-0.37,-0.2 -0.44,-0.17 -0.53,0.06c-0.17,0.43 -0.8,2.24 -0.97,2.74c0.56,-0.31 1.69,-0.97 2.37,-1.37c0.35,-0.21 0.4,-0.28 0.03,-0.69l0.05,-0.06l0.98,0.81l-0.05,0.06l-0.01,0z" fill="#ba0000" id="svg_36"/>
    <path class="st1" d="m44.61,127.46c-0.14,0.15 -0.5,0.5 -0.63,0.62l-2.3,-1.52l0.04,-0.06c0.48,0.23 0.53,0.22 0.81,-0.2l1.38,-2.08c0.29,-0.43 0.29,-0.48 -0.05,-0.8l0.04,-0.06l1.43,0.95c0.44,0.29 0.6,0.4 0.69,0.44c-0.12,0.18 -0.33,0.54 -0.42,0.71l-0.08,-0.04c0.05,-0.15 0.1,-0.38 0.1,-0.51c0,-0.2 -0.07,-0.26 -0.36,-0.45l-0.52,-0.34c-0.13,-0.09 -0.15,-0.08 -0.24,0.05l-0.77,1.17l0.6,0.39c0.35,0.23 0.44,0.18 0.72,-0.11l0.07,0.04l-0.63,0.95l-0.07,-0.04c0.14,-0.4 0.15,-0.48 -0.18,-0.7l-0.6,-0.4l-0.77,1.16c-0.22,0.34 -0.11,0.44 0.17,0.63l0.46,0.3c0.25,0.17 0.35,0.17 0.59,0.07c0.15,-0.06 0.3,-0.14 0.45,-0.25l0.06,0.06l0.01,0.02zm0.56,-3.78l1.25,-0.23c0.06,0.1 0.14,0.31 0.13,0.39l-0.02,0.03l-1.36,-0.09l0,-0.09l0,-0.01z" fill="#ba0000" id="svg_37"/>
    <path class="st1" d="m55.03,130.3c0.07,-0.44 0.01,-0.83 -0.47,-1.04c-0.4,-0.17 -0.71,0.04 -0.85,0.38c-0.17,0.41 -0.02,0.68 0.31,1.12c0.32,0.44 0.68,0.92 0.43,1.51c-0.25,0.59 -0.94,0.83 -1.6,0.55c-0.3,-0.13 -0.57,-0.34 -0.73,-0.49c0.03,-0.16 0.16,-0.71 0.2,-0.81l0.09,0.02c-0.06,0.4 0.02,0.97 0.57,1.2c0.45,0.19 0.8,-0.08 0.95,-0.45c0.17,-0.41 0,-0.76 -0.28,-1.16c-0.32,-0.45 -0.65,-0.9 -0.41,-1.46c0.22,-0.53 0.83,-0.76 1.47,-0.48c0.34,0.14 0.53,0.3 0.64,0.37c-0.06,0.21 -0.15,0.48 -0.22,0.76l-0.09,-0.02l-0.01,0z" fill="#ba0000" id="svg_38"/>
    <path class="st1" d="m60.61,132.35c0.01,-0.18 0.01,-0.29 0,-0.42c-0.03,-0.24 -0.08,-0.35 -0.42,-0.46l-0.67,-0.22l-0.97,2.91c-0.15,0.44 -0.12,0.51 0.34,0.74l-0.02,0.07l-1.51,-0.5l0.02,-0.07c0.51,0.08 0.56,0.04 0.7,-0.4l0.97,-2.91l-0.69,-0.23c-0.31,-0.1 -0.39,-0.02 -0.52,0.09c-0.12,0.12 -0.21,0.23 -0.31,0.37l-0.09,-0.03c0.14,-0.29 0.28,-0.61 0.39,-0.89l0.06,0.02c0.04,0.12 0.08,0.14 0.28,0.21l2.38,0.79c0.16,0.05 0.23,0.06 0.32,0l0.07,0.02c-0.08,0.24 -0.18,0.59 -0.25,0.91l-0.09,0l0.01,0z" fill="#ba0000" id="svg_39"/>
    <path class="st1" d="m65.74,136.86s-0.19,-0.04 -0.23,-0.06c-0.52,-0.16 -0.63,-0.26 -0.78,-0.63c-0.13,-0.32 -0.28,-0.83 -0.4,-1.23c-0.09,-0.29 -0.14,-0.35 -0.42,-0.42l-0.22,-0.05l-0.26,1.09c-0.11,0.46 -0.08,0.53 0.36,0.71l-0.02,0.07l-1.47,-0.35l0.02,-0.07c0.47,0.03 0.53,0 0.64,-0.47l0.6,-2.48c0.11,-0.46 0.08,-0.52 -0.36,-0.7l0.02,-0.07l1.42,0.34c0.41,0.1 0.71,0.24 0.88,0.44c0.18,0.19 0.26,0.49 0.18,0.8c-0.12,0.5 -0.54,0.74 -0.98,0.81c0.06,0.22 0.23,0.74 0.33,1.05c0.13,0.36 0.22,0.6 0.31,0.78c0.11,0.19 0.19,0.26 0.41,0.37l-0.03,0.07zm-1.72,-2.43c0.29,0.07 0.46,0.1 0.65,0.02c0.26,-0.11 0.39,-0.32 0.47,-0.67c0.15,-0.64 -0.13,-1 -0.59,-1.12c-0.2,-0.05 -0.3,-0.05 -0.36,-0.03c-0.06,0.02 -0.09,0.07 -0.13,0.24l-0.36,1.49l0.31,0.08l0.01,-0.01z" fill="#ba0000" id="svg_40"/>
    <path class="st1" d="m70.38,137.63l0,-0.08c0.36,-0.01 0.44,-0.05 0.4,-0.29c-0.04,-0.26 -0.12,-0.69 -0.21,-1.18l-1.17,-0.18c-0.18,0.34 -0.33,0.62 -0.46,0.88c-0.19,0.38 -0.12,0.44 0.33,0.6l0,0.08s-1.26,-0.19 -1.26,-0.19l0,-0.08c0.36,0 0.47,-0.04 0.77,-0.56l1.72,-3l0.1,0c0.21,1.13 0.43,2.27 0.66,3.42c0.11,0.55 0.18,0.58 0.54,0.71l0,0.08s-1.4,-0.21 -1.4,-0.21l-0.02,0zm-0.14,-3.29c-0.27,0.47 -0.51,0.94 -0.77,1.4l1.06,0.16l-0.29,-1.56zm0.06,-1.11l1.03,-0.73c0.1,0.06 0.26,0.23 0.28,0.3l0,0.03s-1.28,0.49 -1.28,0.49l-0.04,-0.08l0.01,-0.01z" fill="#ba0000" id="svg_41"/>
    <path class="st1" d="m78.55,134.58c-0.43,0.07 -0.48,0.13 -0.51,0.54c-0.02,0.16 -0.04,0.28 -0.07,0.81l-0.17,2.5l-0.11,0s-2.47,-3.48 -2.47,-3.48l-0.11,1.68c-0.04,0.57 -0.04,0.75 -0.04,0.95c0,0.36 0.07,0.45 0.55,0.56l0,0.08s-1.36,-0.09 -1.36,-0.09l0,-0.08c0.46,-0.07 0.55,-0.12 0.58,-0.48c0.02,-0.17 0.05,-0.39 0.08,-0.94l0.12,-1.73c0,-0.11 -0.01,-0.19 -0.07,-0.27c-0.13,-0.19 -0.3,-0.25 -0.52,-0.31l0,-0.08s0.9,0.06 0.9,0.06l2.33,3.22l0.11,-1.59c0.04,-0.54 0.03,-0.64 0.04,-0.83c0,-0.39 -0.08,-0.5 -0.58,-0.59l0,-0.08s1.32,0.09 1.32,0.09l0,0.08l-0.02,-0.02z" fill="#ba0000" id="svg_42"/>
    <path class="st1" d="m80.93,134.53l1.52,-0.03l0,0.08c-0.48,0.1 -0.52,0.13 -0.51,0.69l0.02,1.09c0.09,-0.04 0.21,-0.12 0.33,-0.24c0.34,-0.32 0.84,-0.86 1.11,-1.17c0.2,-0.24 0.15,-0.3 -0.12,-0.36l-0.14,-0.02l0,-0.08s1.32,-0.02 1.32,-0.02l0,0.08c-0.44,0.06 -0.55,0.14 -0.92,0.5c-0.25,0.25 -0.71,0.72 -1.13,1.14c0.48,0.54 1.16,1.29 1.48,1.62c0.38,0.38 0.45,0.43 0.82,0.48l0,0.08s-0.97,0.02 -0.97,0.02c-0.52,-0.56 -1.1,-1.22 -1.56,-1.73c-0.12,-0.14 -0.18,-0.18 -0.23,-0.21l0.02,1.2c0.01,0.59 0.06,0.6 0.53,0.69l0,0.08s-1.51,0.03 -1.51,0.03l0,-0.08c0.47,-0.09 0.51,-0.11 0.5,-0.71l-0.04,-2.36c-0.01,-0.58 -0.05,-0.61 -0.53,-0.68l0,-0.08l0.01,-0.01z" fill="#ba0000" id="svg_43"/>
    <path class="st1" d="m90,134.08c-0.41,0.1 -0.43,0.21 -0.57,0.5c-0.24,0.54 -0.44,1.01 -0.69,1.65c-0.03,0.07 -0.04,0.14 -0.03,0.23l0.08,0.87c0.04,0.5 0.09,0.54 0.6,0.57l0,0.08s-1.54,0.15 -1.54,0.15l0,-0.08c0.48,-0.12 0.5,-0.18 0.45,-0.67l-0.08,-0.83c0,-0.1 -0.03,-0.16 -0.1,-0.26c-0.1,-0.18 -0.65,-1.02 -0.91,-1.4c-0.28,-0.42 -0.34,-0.46 -0.7,-0.48l0,-0.08s1.36,-0.13 1.36,-0.13l0,0.08c-0.39,0.1 -0.37,0.18 -0.27,0.34c0.32,0.51 0.8,1.23 1,1.54c0.15,-0.39 0.48,-1.22 0.61,-1.59c0.1,-0.27 0.08,-0.35 -0.39,-0.38l0,-0.08s1.17,-0.12 1.17,-0.12l0,0.08l0.01,0.01z" fill="#ba0000" id="svg_44"/>
    <path class="st1" d="m103.59,134.98l-0.02,-0.07c0.31,-0.17 0.37,-0.24 0.22,-0.44c-0.15,-0.21 -0.41,-0.57 -0.71,-0.96l-1.13,0.35c-0.01,0.39 -0.03,0.7 -0.03,0.99c0,0.43 0.09,0.45 0.56,0.39l0.02,0.07l-1.2,0.38l-0.02,-0.07c0.31,-0.16 0.39,-0.24 0.43,-0.83l0.23,-3.44l0.09,-0.04c0.68,0.93 1.38,1.85 2.09,2.78c0.34,0.45 0.41,0.44 0.79,0.41l0.02,0.07l-1.34,0.42l0,-0.01zm-1.56,-2.9c-0.03,0.54 -0.05,1.07 -0.08,1.59l1.02,-0.32l-0.94,-1.27z" fill="#ba0000" id="svg_45"/>
    <path class="st1" d="m118.08,126.39c-0.26,0.24 -0.26,0.3 -0.09,0.59l0.26,0.44c0.11,0.19 0.22,0.36 0.34,0.46c-0.27,0.25 -0.66,0.65 -1.04,0.87c-1.13,0.67 -2.23,0.41 -2.86,-0.65c-0.71,-1.18 -0.14,-2.3 0.86,-2.9c0.5,-0.3 0.9,-0.41 1.03,-0.48c0.12,0.17 0.35,0.52 0.53,0.73l-0.06,0.06c-0.32,-0.31 -0.59,-0.47 -1.02,-0.36c-0.16,0.04 -0.34,0.12 -0.54,0.24c-0.81,0.49 -0.94,1.34 -0.35,2.33c0.5,0.83 1.38,1.48 2.4,0.86c0.16,-0.1 0.35,-0.24 0.41,-0.37c0.07,-0.13 0.09,-0.23 -0.07,-0.5l-0.27,-0.45c-0.21,-0.36 -0.27,-0.38 -0.75,-0.17l-0.04,-0.07l1.22,-0.73l0.04,0.07l0,0.03z" fill="#ba0000" id="svg_46"/>
    <path class="st1" d="m123.92,124.25s-0.15,0.12 -0.19,0.14c-0.45,0.3 -0.6,0.32 -0.98,0.21c-0.33,-0.11 -0.82,-0.31 -1.2,-0.47c-0.28,-0.12 -0.36,-0.11 -0.59,0.06l-0.18,0.13l0.67,0.9c0.28,0.38 0.36,0.4 0.78,0.17l0.05,0.06l-1.21,0.91l-0.05,-0.06c0.33,-0.34 0.34,-0.41 0.05,-0.79l-1.53,-2.04c-0.28,-0.38 -0.34,-0.39 -0.77,-0.16l-0.05,-0.06l1.17,-0.88c0.34,-0.25 0.63,-0.39 0.9,-0.4c0.26,-0.01 0.54,0.11 0.73,0.37c0.31,0.41 0.22,0.88 0,1.28c0.21,0.09 0.72,0.3 1.02,0.41c0.36,0.13 0.6,0.21 0.8,0.25c0.22,0.04 0.32,0.02 0.54,-0.08l0.03,0.07l0.01,-0.02zm-2.96,-0.23c0.24,-0.18 0.37,-0.29 0.43,-0.49c0.08,-0.27 0,-0.51 -0.22,-0.79c-0.4,-0.53 -0.85,-0.54 -1.24,-0.25c-0.16,0.12 -0.23,0.2 -0.25,0.25c-0.02,0.06 0,0.11 0.1,0.25l0.92,1.22l0.26,-0.19z" fill="#ba0000" id="svg_47"/>
    <path class="st1" d="m127.45,121.05l-0.05,-0.06c0.21,-0.29 0.22,-0.37 0,-0.49c-0.23,-0.13 -0.61,-0.33 -1.06,-0.56l-0.86,0.81c0.16,0.35 0.28,0.65 0.41,0.91c0.18,0.39 0.27,0.36 0.68,0.11l0.05,0.06l-0.92,0.87l-0.05,-0.06c0.21,-0.28 0.25,-0.38 0.02,-0.94l-1.31,-3.2l0.06,-0.08c1.02,0.53 2.05,1.06 3.1,1.58c0.5,0.26 0.56,0.22 0.89,0.02l0.05,0.06l-1.02,0.97l0.01,0zm-2.67,-1.92c0.21,0.5 0.43,0.98 0.63,1.46l0.78,-0.73l-1.41,-0.73z" fill="#ba0000" id="svg_48"/>
    <path class="st1" d="m129.5,114.26c-0.11,-0.05 -0.19,-0.08 -0.3,-0.12c-0.3,-0.1 -0.42,-0.04 -0.7,0.29l-0.37,0.45c-0.11,0.13 -0.11,0.16 0.02,0.26l1.1,0.93l0.49,-0.58c0.29,-0.34 0.27,-0.4 0,-0.74l0.05,-0.06l0.87,0.73l-0.05,0.06c-0.39,-0.2 -0.46,-0.21 -0.75,0.13l-0.48,0.58l0.94,0.79c0.38,0.32 0.44,0.34 0.84,-0.02l0.06,0.05l-1,1.19l-0.06,-0.05c0.25,-0.39 0.24,-0.47 -0.15,-0.8l-1.91,-1.6c-0.39,-0.33 -0.45,-0.32 -0.81,0l-0.06,-0.05l1.15,-1.37c0.36,-0.43 0.46,-0.56 0.5,-0.62c0.11,0.1 0.45,0.36 0.65,0.5l-0.05,0.07l0.02,-0.02z" fill="#ba0000" id="svg_49"/>
    <path class="st1" d="m133.55,113.97l-0.06,-0.04c0.2,-0.43 0.18,-0.5 -0.22,-0.77l-2.08,-1.41c-0.42,-0.29 -0.47,-0.27 -0.8,0.08l-0.06,-0.04l0.85,-1.25l0.06,0.04c-0.21,0.43 -0.2,0.49 0.22,0.78l2.08,1.41c0.39,0.27 0.46,0.26 0.8,-0.08l0.06,0.04l-0.85,1.25l0,-0.01z" fill="#ba0000" id="svg_50"/>
    <path class="st1" d="m132.43,108.53l0.7,-1.35l0.07,0.04c-0.15,0.47 -0.13,0.52 0.36,0.78l0.97,0.51c0.01,-0.09 0,-0.24 -0.05,-0.41c-0.12,-0.45 -0.36,-1.15 -0.5,-1.53c-0.11,-0.29 -0.19,-0.28 -0.37,-0.07l-0.09,0.11l-0.07,-0.04l0.61,-1.17l0.07,0.04c-0.15,0.42 -0.14,0.55 0,1.05c0.1,0.33 0.29,0.96 0.47,1.54c0.7,-0.16 1.7,-0.4 2.14,-0.53c0.52,-0.15 0.59,-0.19 0.81,-0.49l0.07,0.04l-0.45,0.86c-0.74,0.19 -1.6,0.39 -2.27,0.55c-0.18,0.04 -0.25,0.07 -0.29,0.1l1.07,0.56c0.53,0.27 0.55,0.23 0.86,-0.14l0.07,0.04l-0.7,1.35l-0.07,-0.04c0.15,-0.46 0.15,-0.5 -0.38,-0.78l-2.1,-1.09c-0.51,-0.27 -0.56,-0.25 -0.85,0.14l-0.07,-0.04l-0.01,-0.03z" fill="#ba0000" id="svg_51"/>
    <path class="st1" d="m139.3,102.55l-0.07,-0.02c0.05,-0.35 0.02,-0.44 -0.22,-0.44c-0.26,0 -0.7,0 -1.2,0l-0.38,1.13c0.31,0.24 0.55,0.44 0.79,0.61c0.34,0.26 0.41,0.19 0.65,-0.22l0.07,0.02l-0.4,1.2l-0.07,-0.02c0.05,-0.35 0.04,-0.46 -0.42,-0.84l-2.66,-2.21l0.02,-0.1c1.15,0 2.31,-0.03 3.48,-0.05c0.57,0 0.6,-0.07 0.8,-0.4l0.07,0.02l-0.45,1.33l-0.01,-0.01zm-3.26,-0.44c0.42,0.34 0.84,0.67 1.25,1l0.34,-1.01l-1.59,0l0,0.01z" fill="#ba0000" id="svg_52"/>
   </g>
   <g id="svg_53">
    <path class="st1" d="m26.11,50.01c0.51,-0.88 1.06,-1.38 1.69,-1.57c0.56,-0.16 1.2,-0.1 1.84,0.27c0.84,0.49 1.27,1.19 1.37,1.92c0.1,0.74 -0.07,1.41 -0.46,2.09l-1.02,1.78l-0.09,-0.05c0.22,-0.61 0.19,-0.68 -0.36,-1l-2.92,-1.68c-0.56,-0.32 -0.66,-0.31 -1.05,0.19l-0.09,-0.05l1.09,-1.89l0,-0.01zm3.18,2.82c0.62,0.36 0.87,0.15 1.21,-0.44c0.7,-1.21 0.13,-2.24 -1.11,-2.96c-0.8,-0.46 -1.62,-0.57 -2.3,-0.17c-0.37,0.2 -0.63,0.51 -0.89,0.96c-0.13,0.22 -0.21,0.44 -0.22,0.55c0,0.12 0.05,0.18 0.31,0.34l2.99,1.72l0.01,0z" fill="#ba0000" id="svg_54"/>
    <path class="st1" d="m35.32,44.12c0.18,0.2 0.59,0.73 0.73,0.93l-2.36,2.82l-0.08,-0.07c0.38,-0.6 0.37,-0.67 -0.14,-1.1l-2.55,-2.13c-0.53,-0.44 -0.59,-0.46 -1.07,-0.06l-0.08,-0.07l1.47,-1.76c0.45,-0.54 0.61,-0.74 0.69,-0.85c0.22,0.18 0.67,0.52 0.88,0.66l-0.06,0.1c-0.2,-0.09 -0.49,-0.19 -0.66,-0.21c-0.26,-0.02 -0.35,0.05 -0.65,0.41l-0.53,0.63c-0.13,0.16 -0.13,0.19 0.04,0.33l1.43,1.2l0.61,-0.73c0.36,-0.43 0.31,-0.55 -0.03,-0.97l0.07,-0.08l1.16,0.97l-0.07,0.08c-0.5,-0.25 -0.61,-0.27 -0.95,0.13l-0.62,0.74l1.43,1.19c0.41,0.35 0.57,0.21 0.86,-0.13l0.47,-0.56c0.26,-0.31 0.27,-0.44 0.18,-0.78c-0.05,-0.21 -0.15,-0.42 -0.26,-0.64l0.09,-0.07l0,0.02z" fill="#ba0000" id="svg_55"/>
    <path class="st1" d="m37.47,37.93c-0.5,-0.33 -1,-0.48 -1.52,0c-0.43,0.39 -0.34,0.89 -0.02,1.24c0.4,0.44 0.81,0.4 1.54,0.25c0.71,-0.15 1.49,-0.31 2.07,0.33c0.58,0.63 0.48,1.6 -0.23,2.24c-0.32,0.29 -0.73,0.49 -1,0.61c-0.17,-0.12 -0.77,-0.59 -0.88,-0.69l0.07,-0.1c0.46,0.29 1.18,0.52 1.78,-0.03c0.49,-0.44 0.35,-1.01 0,-1.4c-0.4,-0.44 -0.92,-0.43 -1.57,-0.3c-0.72,0.14 -1.45,0.28 -2,-0.32c-0.52,-0.57 -0.46,-1.42 0.24,-2.05c0.36,-0.33 0.66,-0.47 0.81,-0.57c0.21,0.19 0.51,0.45 0.8,0.69l-0.07,0.1l-0.02,0z" fill="#ba0000" id="svg_56"/>
    <path class="st1" d="m42.81,38.91l-0.06,-0.08c0.44,-0.46 0.45,-0.55 0.07,-1.07l-1.98,-2.71c-0.4,-0.55 -0.47,-0.55 -1.04,-0.26l-0.06,-0.08l1.64,-1.19l0.06,0.08c-0.46,0.45 -0.48,0.53 -0.08,1.08l1.98,2.71c0.38,0.52 0.46,0.54 1.04,0.25l0.06,0.08l-1.64,1.19l0.01,0z" fill="#ba0000" id="svg_57"/>
    <path class="st1" d="m50.22,31.62c-0.36,0.31 -0.36,0.39 -0.14,0.79l0.33,0.59c0.14,0.26 0.28,0.48 0.43,0.63c-0.37,0.32 -0.91,0.84 -1.42,1.13c-1.53,0.86 -2.98,0.47 -3.79,-0.97c-0.9,-1.59 -0.1,-3.07 1.25,-3.84c0.67,-0.38 1.22,-0.51 1.4,-0.6c0.15,0.24 0.45,0.7 0.68,0.99l-0.08,0.08c-0.41,-0.42 -0.77,-0.65 -1.34,-0.52c-0.21,0.05 -0.46,0.15 -0.74,0.3c-1.1,0.62 -1.31,1.76 -0.56,3.1c0.63,1.12 1.78,2.02 3.17,1.24c0.22,-0.12 0.47,-0.31 0.57,-0.47c0.1,-0.17 0.12,-0.31 -0.08,-0.67l-0.34,-0.61c-0.27,-0.49 -0.34,-0.52 -0.99,-0.25l-0.06,-0.1l1.65,-0.93l0.06,0.1l0,0.01z" fill="#ba0000" id="svg_58"/>
    <path class="st1" d="m56.91,25.64c-0.47,0.32 -0.5,0.43 -0.31,0.95c0.07,0.2 0.11,0.35 0.38,1.02l1.23,3.1l-0.13,0.05l-4.97,-2.76l0.83,2.09c0.28,0.71 0.39,0.93 0.49,1.17c0.19,0.44 0.34,0.5 0.98,0.36l0.04,0.09l-1.69,0.67l-0.04,-0.09c0.5,-0.34 0.58,-0.46 0.42,-0.92c-0.07,-0.21 -0.17,-0.49 -0.44,-1.18l-0.86,-2.15c-0.05,-0.14 -0.13,-0.22 -0.24,-0.28c-0.27,-0.16 -0.5,-0.13 -0.81,-0.07l-0.04,-0.09l1.11,-0.44l4.66,2.54l-0.79,-1.98c-0.27,-0.67 -0.32,-0.79 -0.44,-1.02c-0.22,-0.47 -0.38,-0.56 -1.03,-0.38l-0.04,-0.09l1.63,-0.65l0.04,0.09l0.02,-0.03z" fill="#ba0000" id="svg_59"/>
    <path class="st1" d="m62.99,24.86c-0.3,-0.52 -0.67,-0.88 -1.35,-0.69c-0.56,0.15 -0.71,0.64 -0.58,1.1c0.16,0.57 0.55,0.72 1.26,0.91c0.7,0.19 1.47,0.4 1.7,1.22c0.23,0.82 -0.29,1.64 -1.21,1.9c-0.42,0.12 -0.87,0.11 -1.17,0.09c-0.1,-0.18 -0.42,-0.87 -0.47,-1.01l0.1,-0.05c0.28,0.47 0.82,0.99 1.6,0.78c0.63,-0.18 0.77,-0.74 0.62,-1.25c-0.16,-0.57 -0.63,-0.8 -1.26,-0.98c-0.7,-0.2 -1.42,-0.4 -1.64,-1.18c-0.2,-0.74 0.24,-1.48 1.13,-1.72c0.47,-0.13 0.8,-0.12 0.97,-0.14c0.11,0.26 0.25,0.63 0.4,0.97l-0.11,0.06l0.01,-0.01z" fill="#ba0000" id="svg_60"/>
    <path class="st1" d="m81.53,23.81c0.8,0.12 1.45,0.51 1.46,1.31c0,0.54 -0.28,0.97 -0.71,1.23c-0.39,0.23 -0.87,0.32 -1.36,0.33l-1.83,0.02l0,-0.1c0.63,-0.12 0.68,-0.18 0.67,-0.83l-0.04,-3.39c0,-0.62 -0.09,-0.67 -0.7,-0.78l0,-0.1s2.01,-0.03 2.01,-0.03c0.6,0 0.93,0.11 1.17,0.28c0.26,0.19 0.43,0.5 0.44,0.85c0,0.74 -0.62,1.07 -1.11,1.2l0,0.01zm-0.73,-0.03c0.89,-0.01 1.15,-0.38 1.14,-1.04c0,-0.58 -0.3,-1.09 -1.06,-1.08c-0.16,0 -0.31,0.01 -0.38,0.05c-0.13,0.04 -0.15,0.14 -0.15,0.43l0.02,1.64l0.43,0zm-0.4,2c0,0.59 0.21,0.73 0.74,0.72c0.66,0 1.13,-0.42 1.12,-1.28c-0.01,-0.84 -0.45,-1.29 -1.43,-1.28l-0.45,0s0.02,1.84 0.02,1.84z" fill="#ba0000" id="svg_61"/>
    <path class="st1" d="m90.61,22.11c-0.56,0.03 -0.62,0.16 -0.88,0.52c-0.45,0.65 -0.83,1.22 -1.31,2c-0.05,0.08 -0.09,0.17 -0.1,0.29l-0.11,1.16c-0.07,0.67 0,0.73 0.65,0.89l0,0.1s-2.08,-0.19 -2.08,-0.19l0,-0.1c0.67,-0.04 0.72,-0.11 0.78,-0.77l0.1,-1.1c0.01,-0.13 0,-0.21 -0.06,-0.36c-0.09,-0.26 -0.6,-1.5 -0.85,-2.06c-0.27,-0.61 -0.33,-0.69 -0.8,-0.8l0,-0.1s1.83,0.16 1.83,0.16l0,0.1c-0.55,0.03 -0.55,0.14 -0.46,0.38c0.3,0.74 0.75,1.81 0.93,2.26c0.3,-0.47 0.93,-1.48 1.19,-1.94c0.2,-0.33 0.19,-0.44 -0.42,-0.59l0,-0.1s1.58,0.14 1.58,0.14l0,0.1l0.01,0.01z" fill="#ba0000" id="svg_62"/>
    <path class="st1" d="m107.95,30.63c-0.13,0.22 -0.55,0.83 -0.71,1.04l-3.35,-1.28l0.04,-0.09c0.7,0.16 0.76,0.12 1,-0.5l1.2,-3.15c0.24,-0.62 0.19,-0.7 -0.36,-1l0.04,-0.1l1.85,0.71l-0.04,0.09c-0.59,-0.11 -0.66,-0.1 -0.89,0.52l-1.25,3.27c-0.2,0.52 -0.11,0.58 0.37,0.77c0.14,0.05 0.37,0.13 0.49,0.18c0.43,0.17 0.61,0.21 0.9,0.02c0.2,-0.13 0.4,-0.3 0.62,-0.55l0.09,0.07z" fill="#ba0000" id="svg_63"/>
    <path class="st1" d="m114.9,29.44c1.2,0.63 1.74,2.15 1.01,3.52c-0.78,1.48 -2.33,1.92 -3.6,1.25c-1.27,-0.67 -1.72,-2.22 -1.02,-3.53c0.67,-1.27 2.18,-2 3.61,-1.24zm-0.22,0.09c-0.8,-0.42 -1.88,-0.06 -2.61,1.31c-0.73,1.37 -0.57,2.73 0.47,3.28c0.81,0.43 1.85,0.06 2.57,-1.31c0.8,-1.52 0.55,-2.76 -0.44,-3.29l0.01,0.01z" fill="#ba0000" id="svg_64"/>
    <path class="st1" d="m123.98,35.51c-0.49,-0.25 -0.62,-0.2 -1.28,0.21c-0.58,0.37 -2.5,1.6 -3.89,2.51l-0.1,-0.07c0.43,-1.49 0.89,-3.14 1.28,-4.52c0.19,-0.67 0.14,-0.78 -0.23,-1.16l0.06,-0.08l1.58,1.14l-0.06,0.08c-0.51,-0.24 -0.6,-0.18 -0.7,0.13c-0.19,0.58 -0.86,3.06 -1.04,3.74c0.71,-0.46 2.17,-1.44 3.04,-2.04c0.45,-0.31 0.5,-0.41 -0.03,-0.92l0.06,-0.08l1.38,0.99l-0.06,0.08l-0.01,-0.01z" fill="#ba0000" id="svg_65"/>
    <path class="st1" d="m126.45,43.07c-0.21,0.17 -0.77,0.54 -0.97,0.67l-2.67,-2.53l0.07,-0.07c0.57,0.41 0.65,0.41 1.1,-0.07l2.29,-2.41c0.48,-0.5 0.49,-0.56 0.12,-1.06l0.07,-0.07l1.66,1.58c0.51,0.49 0.7,0.66 0.8,0.74c-0.2,0.21 -0.56,0.64 -0.71,0.84l-0.09,-0.07c0.1,-0.19 0.22,-0.48 0.25,-0.65c0.04,-0.26 -0.03,-0.35 -0.37,-0.68l-0.6,-0.57c-0.15,-0.14 -0.18,-0.14 -0.33,0.02l-1.28,1.35l0.69,0.66c0.41,0.39 0.53,0.34 0.97,0.03l0.08,0.07l-1.05,1.1l-0.08,-0.07c0.28,-0.48 0.31,-0.59 -0.07,-0.96l-0.7,-0.67l-1.28,1.35c-0.37,0.39 -0.25,0.55 0.08,0.87l0.53,0.51c0.29,0.28 0.42,0.3 0.76,0.23c0.21,-0.04 0.43,-0.12 0.65,-0.22l0.06,0.09l0.02,-0.01z" fill="#ba0000" id="svg_66"/>
    <path class="st1" d="m130.35,49.65s-0.16,-0.2 -0.19,-0.26c-0.41,-0.59 -0.45,-0.8 -0.3,-1.31c0.13,-0.44 0.39,-1.1 0.6,-1.62c0.15,-0.37 0.14,-0.48 -0.1,-0.79l-0.18,-0.23l-1.18,0.92c-0.49,0.39 -0.52,0.49 -0.21,1.04l-0.08,0.06l-1.24,-1.59l0.08,-0.06c0.46,0.42 0.55,0.44 1.06,0.04l2.68,-2.1c0.49,-0.39 0.51,-0.47 0.2,-1.03l0.08,-0.06l1.21,1.54c0.35,0.44 0.54,0.83 0.56,1.2c0.03,0.35 -0.13,0.72 -0.47,0.98c-0.54,0.42 -1.17,0.32 -1.7,0.03c-0.12,0.28 -0.38,0.96 -0.52,1.37c-0.17,0.48 -0.27,0.8 -0.32,1.07c-0.05,0.29 -0.02,0.43 0.13,0.72l-0.09,0.04l-0.02,0.04zm0.22,-3.96c0.24,0.31 0.4,0.49 0.67,0.56c0.36,0.1 0.68,-0.01 1.05,-0.31c0.69,-0.54 0.7,-1.15 0.31,-1.66c-0.17,-0.21 -0.28,-0.31 -0.35,-0.33c-0.08,-0.03 -0.15,0 -0.34,0.14l-1.61,1.26l0.26,0.34l0.01,0z" fill="#ba0000" id="svg_67"/>
    <path class="st1" d="m136.61,52.2c0.44,-0.41 0.7,-0.85 0.36,-1.48c-0.28,-0.51 -0.78,-0.54 -1.2,-0.31c-0.52,0.29 -0.58,0.7 -0.61,1.43c-0.03,0.72 -0.05,1.52 -0.81,1.93c-0.75,0.41 -1.66,0.09 -2.12,-0.75c-0.21,-0.38 -0.31,-0.83 -0.35,-1.12c0.16,-0.14 0.75,-0.6 0.88,-0.69l0.08,0.09c-0.39,0.38 -0.78,1.02 -0.4,1.73c0.31,0.58 0.89,0.58 1.36,0.32c0.52,-0.29 0.63,-0.79 0.67,-1.45c0.04,-0.73 0.07,-1.48 0.78,-1.87c0.67,-0.37 1.49,-0.1 1.94,0.71c0.23,0.43 0.3,0.75 0.36,0.92c-0.23,0.16 -0.55,0.39 -0.86,0.62l-0.08,-0.1l0,0.02z" fill="#ba0000" id="svg_68"/>
   </g>
  </g>
 </g>
</svg>